<svg width="152" height="54" viewBox="0 0 152 54" fill="none" xmlns="http://www.w3.org/2000/svg">
<rect width="151.2" height="54" rx="4" fill="black"/>
<path d="M33.2611 27.6268C33.2845 25.8113 34.2595 24.0935 35.8062 23.1426C34.8304 21.749 33.1961 20.8655 31.4957 20.8123C29.6821 20.6219 27.924 21.8975 26.9998 21.8975C26.0577 21.8975 24.6348 20.8312 23.1026 20.8627C21.1054 20.9272 19.2435 22.0627 18.2719 23.8088C16.1831 27.4251 17.7411 32.7398 19.742 35.663C20.743 37.0943 21.913 38.6932 23.4438 38.6365C24.9418 38.5744 25.5013 37.6813 27.3096 37.6813C29.101 37.6813 29.6259 38.6365 31.1878 38.6005C32.7953 38.5744 33.8081 37.1627 34.774 35.7178C35.4932 34.6979 36.0467 33.5707 36.4139 32.3779C34.5248 31.5789 33.2633 29.6779 33.2611 27.6268Z" fill="white"/>
<path d="M30.3109 18.8899C31.1873 17.8377 31.6191 16.4854 31.5146 15.12C30.1756 15.2606 28.9387 15.9006 28.0504 16.9124C27.1818 17.9009 26.7297 19.2295 26.8152 20.5427C28.1547 20.5565 29.4715 19.9339 30.3109 18.8899Z" fill="white"/>
<path d="M45.2196 23.04H47.7792C50.1768 23.04 51.8832 21.4956 51.8832 19.3248C51.8832 17.154 50.1768 15.6204 47.7792 15.6204H45.2196V23.04ZM46.3104 22.0464V16.614H47.844C49.5612 16.614 50.76 17.7372 50.76 19.3248C50.76 20.9232 49.5612 22.0464 47.844 22.0464H46.3104ZM55.9302 23.1696C57.5178 23.1696 58.857 21.8304 58.857 20.2428C58.857 18.6552 57.5178 17.3268 55.9302 17.3268C54.3318 17.3268 52.9818 18.6552 52.9818 20.2428C52.9818 21.8304 54.3318 23.1696 55.9302 23.1696ZM55.9302 22.2408C54.9042 22.2408 54.051 21.3336 54.051 20.2428C54.051 19.1628 54.9042 18.2556 55.9302 18.2556C56.9346 18.2556 57.7878 19.1628 57.7878 20.2428C57.7878 21.3336 56.9346 22.2408 55.9302 22.2408ZM61.2908 23.04H62.2736L63.6236 18.8928L64.9628 23.04H65.9456L67.8248 17.4564H66.734L65.4596 21.6144L64.0772 17.4564H63.17L61.7876 21.6144L60.5024 17.4564H59.4116L61.2908 23.04ZM71.7445 17.3268C70.9885 17.3268 70.3081 17.7156 69.9733 18.2664V17.4564H68.9041V23.04H69.9733V19.422C70.0597 18.7632 70.7293 18.2556 71.5069 18.2556C72.2629 18.2556 72.7921 18.8388 72.7921 19.6704V23.04H73.8397V19.4868C73.8397 18.2232 72.9757 17.3268 71.7445 17.3268ZM75.3693 23.04H76.4277V15.4908H75.3693V23.04ZM80.6309 23.1696C82.2185 23.1696 83.5577 21.8304 83.5577 20.2428C83.5577 18.6552 82.2185 17.3268 80.6309 17.3268C79.0325 17.3268 77.6825 18.6552 77.6825 20.2428C77.6825 21.8304 79.0325 23.1696 80.6309 23.1696ZM80.6309 22.2408C79.6049 22.2408 78.7517 21.3336 78.7517 20.2428C78.7517 19.1628 79.6049 18.2556 80.6309 18.2556C81.6353 18.2556 82.4885 19.1628 82.4885 20.2428C82.4885 21.3336 81.6353 22.2408 80.6309 22.2408ZM87.1524 17.3268C86.5368 17.3268 85.8348 17.4888 85.0356 17.8884L85.4244 18.6768C85.9104 18.4284 86.4504 18.2124 87.0012 18.2124C88.1136 18.2124 88.4376 18.9576 88.4376 19.6596V19.8324C87.8976 19.6488 87.3036 19.53 86.7528 19.53C85.5216 19.53 84.5172 20.2752 84.5172 21.3876C84.5172 22.4784 85.392 23.1696 86.58 23.1696C87.2604 23.1696 88.0272 22.8564 88.4376 22.2732V23.04H89.4852V19.6596C89.4852 18.2772 88.6536 17.3268 87.1524 17.3268ZM86.7852 22.3272C86.0832 22.3272 85.5432 21.96 85.5432 21.3552C85.5432 20.7504 86.1696 20.3292 86.9148 20.3292C87.4656 20.3292 87.984 20.4048 88.4376 20.5452V21.2904C88.254 21.9816 87.4764 22.3272 86.7852 22.3272ZM95.3298 15.4908V18.4176C94.8978 17.7372 94.2066 17.3268 93.3426 17.3268C91.8738 17.3268 90.7722 18.5364 90.7722 20.2428C90.7722 21.96 91.8738 23.1696 93.3426 23.1696C94.2066 23.1696 94.8978 22.7592 95.3298 22.068V23.04H96.3882V15.4908H95.3298ZM93.6018 22.2408C92.5758 22.2408 91.8522 21.4092 91.8522 20.2428C91.8522 19.0764 92.5758 18.2556 93.6018 18.2556C94.6062 18.2556 95.3298 19.0764 95.3298 20.2428C95.3298 21.4092 94.6062 22.2408 93.6018 22.2408ZM103.729 23.1696C105.316 23.1696 106.655 21.8304 106.655 20.2428C106.655 18.6552 105.316 17.3268 103.729 17.3268C102.13 17.3268 100.78 18.6552 100.78 20.2428C100.78 21.8304 102.13 23.1696 103.729 23.1696ZM103.729 22.2408C102.703 22.2408 101.849 21.3336 101.849 20.2428C101.849 19.1628 102.703 18.2556 103.729 18.2556C104.733 18.2556 105.586 19.1628 105.586 20.2428C105.586 21.3336 104.733 22.2408 103.729 22.2408ZM110.747 17.3268C109.991 17.3268 109.31 17.7156 108.976 18.2664V17.4564H107.906V23.04H108.976V19.422C109.062 18.7632 109.732 18.2556 110.509 18.2556C111.265 18.2556 111.794 18.8388 111.794 19.6704V23.04H112.842V19.4868C112.842 18.2232 111.978 17.3268 110.747 17.3268ZM120.075 22.0356C119.957 22.1544 119.741 22.2408 119.503 22.2408C119.19 22.2408 118.931 21.96 118.931 21.5712V18.3636H120.248V17.4564H118.931V15.9228H117.883V17.4564H117.041V18.3636H117.883V21.6468C117.883 22.5432 118.488 23.1696 119.352 23.1696C119.751 23.1696 120.162 23.0184 120.464 22.77L120.075 22.0356ZM124.394 17.3268C123.628 17.3268 122.947 17.7264 122.612 18.288V15.4908H121.554V23.04H122.612V19.5732C122.612 18.8496 123.314 18.2556 124.157 18.2556C124.913 18.2556 125.442 18.8388 125.442 19.6704V23.04H126.49V19.4868C126.49 18.2232 125.626 17.3268 124.394 17.3268ZM130.579 22.2192C129.618 22.2192 128.937 21.5496 128.797 20.6208H133.193C133.193 18.6228 132.21 17.3268 130.503 17.3268C128.959 17.3268 127.717 18.558 127.717 20.232C127.717 21.9492 129.035 23.1696 130.59 23.1696C131.378 23.1696 132.35 22.8348 132.847 22.3056L132.177 21.6144C131.843 21.96 131.162 22.2192 130.579 22.2192ZM130.547 18.2772C131.508 18.2772 132.037 18.9036 132.156 19.7676H128.808C128.981 18.8604 129.683 18.2772 130.547 18.2772Z" fill="white"/>
<path d="M52.9286 36.84H55.4385L51.2049 26.4525H48.7101L44.4765 36.84H46.9713L47.6366 35.207H52.2633L52.9286 36.84ZM48.4077 33.317L49.9499 29.5219L51.4922 33.317H48.4077ZM61.4256 28.8415C60.337 28.8415 59.4298 29.3102 58.8099 30.1116V29.0229H56.6024V39.4406H58.8099V35.7362C59.4298 36.5527 60.337 37.0214 61.4256 37.0214C63.5122 37.0214 65.0242 35.328 65.0242 32.9239C65.0242 30.5349 63.5122 28.8415 61.4256 28.8415ZM60.7906 35.1616C59.7171 35.1616 58.9308 34.3754 58.8099 33.2263V32.6215C58.9308 31.4875 59.7171 30.7012 60.7906 30.7012C62.0153 30.7012 62.8772 31.6236 62.8772 32.9239C62.8772 34.2393 62.0153 35.1616 60.7906 35.1616ZM71.4072 28.8415C70.3186 28.8415 69.4114 29.3102 68.7914 30.1116V29.0229H66.5839V39.4406H68.7914V35.7362C69.4114 36.5527 70.3186 37.0214 71.4072 37.0214C73.4938 37.0214 75.0058 35.328 75.0058 32.9239C75.0058 30.5349 73.4938 28.8415 71.4072 28.8415ZM70.7722 35.1616C69.6986 35.1616 68.9124 34.3754 68.7914 33.2263V32.6215C68.9124 31.4875 69.6986 30.7012 70.7722 30.7012C71.9969 30.7012 72.8587 31.6236 72.8587 32.9239C72.8587 34.2393 71.9969 35.1616 70.7722 35.1616ZM84.7801 37.0214C87.3203 37.0214 88.8172 35.706 88.8172 33.7252C88.8172 31.805 87.3354 31.1397 85.0977 30.6408C83.4949 30.2779 82.875 30.036 82.875 29.28C82.875 28.66 83.4496 28.1611 84.4021 28.1611C85.4001 28.1611 86.4433 28.5693 87.3657 29.3102L88.5299 27.7075C87.4715 26.8003 86.1561 26.2711 84.4626 26.2711C82.1946 26.2711 80.6221 27.5865 80.6221 29.5068C80.6221 31.5177 82.1795 32.1376 84.3719 32.6366C85.9595 32.9995 86.5643 33.2263 86.5643 33.9672C86.5643 34.6173 85.9897 35.1314 84.8709 35.1314C83.5554 35.1314 82.4365 34.6173 81.4537 33.7706L80.1685 35.2977C81.3781 36.4166 82.9809 37.0214 84.7801 37.0214ZM94.4692 34.9046C94.318 35.0558 94.0156 35.1616 93.7132 35.1616C93.305 35.1616 92.9723 34.7988 92.9723 34.2847V30.8071H94.6658V29.0229H92.9723V26.8759H90.8555V29.0229H89.782V30.8071H90.8555V34.6324C90.8555 36.0386 91.8232 37.0214 93.1991 37.0214C93.8342 37.0214 94.5448 36.7492 94.9984 36.341L94.4692 34.9046ZM100.221 37.0214C102.535 37.0214 104.47 35.1465 104.47 32.9239C104.47 30.7012 102.535 28.8415 100.221 28.8415C97.893 28.8415 95.9425 30.7012 95.9425 32.9239C95.9425 35.1465 97.893 37.0214 100.221 37.0214ZM100.221 35.1616C99.0421 35.1616 98.0593 34.1335 98.0593 32.9239C98.0593 31.7143 99.0421 30.7012 100.221 30.7012C101.386 30.7012 102.368 31.7143 102.368 32.9239C102.368 34.1335 101.386 35.1616 100.221 35.1616ZM108.171 30.4744V29.0229H105.964V36.84H108.171V33.1053C108.171 31.6387 109.215 30.7012 110.848 30.7012V28.8415C109.653 28.8415 108.685 29.4614 108.171 30.4744ZM115.81 35.0709C114.888 35.0709 114.208 34.4964 113.951 33.6496H119.59C119.59 30.7012 118.154 28.8415 115.705 28.8415C113.421 28.8415 111.683 30.55 111.683 32.9088C111.683 35.3128 113.497 37.0214 115.826 37.0214C116.975 37.0214 118.32 36.5376 119.016 35.8118L117.61 34.3754C117.186 34.7836 116.43 35.0709 115.81 35.0709ZM115.795 30.792C116.687 30.792 117.262 31.2909 117.474 32.062H113.981C114.268 31.2758 114.964 30.792 115.795 30.792Z" fill="white"/>
</svg>
