<svg width="173" height="173" viewBox="0 0 173 173" fill="none" xmlns="http://www.w3.org/2000/svg">
<circle cx="86.5" cy="86.5" r="86.5" fill="#AFB3BE"/>
<path d="M69.4189 92.6797V95H61.5557V92.6797H69.4189ZM62.4473 79.3594V95H59.4932V79.3594H62.4473ZM83.3516 86.7822V87.5879C83.3516 88.7695 83.194 89.833 82.8789 90.7783C82.5638 91.7165 82.1162 92.515 81.5361 93.1738C80.9561 93.8327 80.265 94.3376 79.4629 94.6885C78.6608 95.0394 77.7692 95.2148 76.7881 95.2148C75.8213 95.2148 74.9333 95.0394 74.124 94.6885C73.3219 94.3376 72.6273 93.8327 72.04 93.1738C71.4528 92.515 70.998 91.7165 70.6758 90.7783C70.3535 89.833 70.1924 88.7695 70.1924 87.5879V86.7822C70.1924 85.5934 70.3535 84.5299 70.6758 83.5918C70.998 82.6536 71.4492 81.8551 72.0293 81.1963C72.6094 80.5303 73.3005 80.0218 74.1025 79.6709C74.9118 79.32 75.7998 79.1445 76.7666 79.1445C77.7477 79.1445 78.6393 79.32 79.4414 79.6709C80.2435 80.0218 80.9346 80.5303 81.5146 81.1963C82.1019 81.8551 82.5531 82.6536 82.8682 83.5918C83.1904 84.5299 83.3516 85.5934 83.3516 86.7822ZM80.3652 87.5879V86.7607C80.3652 85.9085 80.2865 85.1602 80.1289 84.5156C79.9714 83.8639 79.7386 83.3161 79.4307 82.8721C79.1227 82.4281 78.7432 82.0951 78.292 81.873C77.8408 81.6439 77.3324 81.5293 76.7666 81.5293C76.1937 81.5293 75.6852 81.6439 75.2412 81.873C74.8044 82.0951 74.432 82.4281 74.124 82.8721C73.8161 83.3161 73.5798 83.8639 73.415 84.5156C73.2575 85.1602 73.1787 85.9085 73.1787 86.7607V87.5879C73.1787 88.4329 73.2575 89.1813 73.415 89.833C73.5798 90.4847 73.8161 91.0361 74.124 91.4873C74.4391 91.9313 74.8187 92.2679 75.2627 92.4971C75.7067 92.7262 76.2152 92.8408 76.7881 92.8408C77.361 92.8408 77.8695 92.7262 78.3135 92.4971C78.7575 92.2679 79.1299 91.9313 79.4307 91.4873C79.7386 91.0361 79.9714 90.4847 80.1289 89.833C80.2865 89.1813 80.3652 88.4329 80.3652 87.5879ZM98.0576 86.9111V93.002C97.8285 93.2956 97.4668 93.6143 96.9727 93.958C96.4857 94.3018 95.8483 94.599 95.0605 94.8496C94.2728 95.0931 93.306 95.2148 92.1602 95.2148C91.1647 95.2148 90.2552 95.0501 89.4316 94.7207C88.6081 94.3841 87.8991 93.8936 87.3047 93.249C86.7103 92.6045 86.252 91.8167 85.9297 90.8857C85.6074 89.9548 85.4463 88.8913 85.4463 87.6953V86.6641C85.4463 85.4681 85.5967 84.4046 85.8975 83.4736C86.2054 82.5426 86.6423 81.7549 87.208 81.1104C87.7809 80.4658 88.4648 79.9753 89.2598 79.6387C90.0618 79.3021 90.957 79.1338 91.9453 79.1338C93.2702 79.1338 94.3587 79.3522 95.2109 79.7891C96.0703 80.2259 96.7292 80.8275 97.1875 81.5938C97.6458 82.3529 97.9323 83.2266 98.0469 84.2148H95.168C95.0892 83.6706 94.9316 83.1943 94.6953 82.7861C94.459 82.3708 94.1224 82.0485 93.6855 81.8193C93.2559 81.583 92.6973 81.4648 92.0098 81.4648C91.4297 81.4648 90.9176 81.5794 90.4736 81.8086C90.0296 82.0378 89.6572 82.3708 89.3564 82.8076C89.0557 83.2445 88.8265 83.7852 88.6689 84.4297C88.5186 85.0742 88.4434 85.8118 88.4434 86.6426V87.6953C88.4434 88.5332 88.5293 89.278 88.7012 89.9297C88.873 90.5742 89.1201 91.1185 89.4424 91.5625C89.7718 91.9993 90.1764 92.3324 90.6562 92.5615C91.1432 92.7835 91.6947 92.8945 92.3105 92.8945C92.8691 92.8945 93.3311 92.848 93.6963 92.7549C94.0687 92.6546 94.3659 92.5365 94.5879 92.4004C94.8099 92.2643 94.9818 92.1318 95.1035 92.0029V89.0703H91.999V86.9111H98.0576ZM113.516 86.7822V87.5879C113.516 88.7695 113.358 89.833 113.043 90.7783C112.728 91.7165 112.28 92.515 111.7 93.1738C111.12 93.8327 110.429 94.3376 109.627 94.6885C108.825 95.0394 107.933 95.2148 106.952 95.2148C105.985 95.2148 105.097 95.0394 104.288 94.6885C103.486 94.3376 102.791 93.8327 102.204 93.1738C101.617 92.515 101.162 91.7165 100.84 90.7783C100.518 89.833 100.356 88.7695 100.356 87.5879V86.7822C100.356 85.5934 100.518 84.5299 100.84 83.5918C101.162 82.6536 101.613 81.8551 102.193 81.1963C102.773 80.5303 103.465 80.0218 104.267 79.6709C105.076 79.32 105.964 79.1445 106.931 79.1445C107.912 79.1445 108.803 79.32 109.605 79.6709C110.408 80.0218 111.099 80.5303 111.679 81.1963C112.266 81.8551 112.717 82.6536 113.032 83.5918C113.354 84.5299 113.516 85.5934 113.516 86.7822ZM110.529 87.5879V86.7607C110.529 85.9085 110.451 85.1602 110.293 84.5156C110.135 83.8639 109.903 83.3161 109.595 82.8721C109.287 82.4281 108.907 82.0951 108.456 81.873C108.005 81.6439 107.496 81.5293 106.931 81.5293C106.358 81.5293 105.849 81.6439 105.405 81.873C104.968 82.0951 104.596 82.4281 104.288 82.8721C103.98 83.3161 103.744 83.8639 103.579 84.5156C103.422 85.1602 103.343 85.9085 103.343 86.7607V87.5879C103.343 88.4329 103.422 89.1813 103.579 89.833C103.744 90.4847 103.98 91.0361 104.288 91.4873C104.603 91.9313 104.983 92.2679 105.427 92.4971C105.871 92.7262 106.379 92.8408 106.952 92.8408C107.525 92.8408 108.034 92.7262 108.478 92.4971C108.922 92.2679 109.294 91.9313 109.595 91.4873C109.903 91.0361 110.135 90.4847 110.293 89.833C110.451 89.1813 110.529 88.4329 110.529 87.5879Z" fill="white"/>
</svg>
