<svg width="32" height="31" viewBox="0 0 32 31" fill="none" xmlns="http://www.w3.org/2000/svg">
<path d="M14.1853 26.6277C8.77056 25.6722 4.62988 20.9582 4.62988 15.2886C4.62988 8.98207 9.7898 3.82216 16.0964 3.82216C22.4029 3.82216 27.5628 8.98207 27.5628 15.2886C27.5628 20.9582 23.4222 25.6722 18.0074 26.6277L17.3704 26.1181H14.8223L14.1853 26.6277Z" fill="url(#paint0_linear_3804_11491)"/>
<path d="M20.5555 18.4738L21.0651 15.2886H18.0074V13.059C18.0074 12.1672 18.3259 11.4665 19.7274 11.4665H21.1925V8.53615C20.3644 8.40875 19.4725 8.28134 18.6444 8.28134C16.0326 8.28134 14.1852 9.87391 14.1852 12.7405V15.2886H11.3186V18.4738H14.1852V26.564C14.8222 26.6914 15.4593 26.7551 16.0963 26.7551C16.7333 26.7551 17.3704 26.6914 18.0074 26.564V18.4738H20.5555Z" fill="white"/>
<defs>
<linearGradient id="paint0_linear_3804_11491" x1="16.0964" y1="25.9614" x2="16.0964" y2="3.82216" gradientUnits="userSpaceOnUse">
<stop stop-color="#0062E0"/>
<stop offset="1" stop-color="#19AFFF"/>
</linearGradient>
</defs>
</svg>
