<svg width="152" height="54" viewBox="0 0 152 54" fill="none" xmlns="http://www.w3.org/2000/svg">
<rect x="0.199951" width="151.2" height="54" rx="4" fill="black"/>
<path d="M50.8735 19.9944H52.8607V21.5496C52.3531 21.9384 51.6511 22.1652 51.0247 22.1652C49.5343 22.1652 48.2815 20.8692 48.2815 19.3248C48.2815 17.7912 49.5343 16.4952 51.0247 16.4952C51.7915 16.4952 52.6663 16.8408 53.1739 17.3916L53.9407 16.6572C53.2387 15.9336 52.0723 15.4908 51.0247 15.4908C48.9403 15.4908 47.1583 17.2404 47.1583 19.3248C47.1583 21.4092 48.9403 23.1696 51.0247 23.1696C52.0723 23.1696 53.2387 22.716 53.9407 22.0032V19.044H50.8735V19.9944ZM58.0139 22.2192C57.0527 22.2192 56.3723 21.5496 56.2319 20.6208H60.6275C60.6275 18.6228 59.6447 17.3268 57.9383 17.3268C56.3939 17.3268 55.1519 18.558 55.1519 20.232C55.1519 21.9492 56.4695 23.1696 58.0247 23.1696C58.8131 23.1696 59.7851 22.8348 60.2819 22.3056L59.6123 21.6144C59.2775 21.96 58.5971 22.2192 58.0139 22.2192ZM57.9815 18.2772C58.9427 18.2772 59.4719 18.9036 59.5907 19.7676H56.2427C56.4155 18.8604 57.1175 18.2772 57.9815 18.2772ZM64.4804 22.0356C64.3616 22.1544 64.1456 22.2408 63.908 22.2408C63.5948 22.2408 63.3356 21.96 63.3356 21.5712V18.3636H64.6532V17.4564H63.3356V15.9228H62.288V17.4564H61.4456V18.3636H62.288V21.6468C62.288 22.5432 62.8928 23.1696 63.7568 23.1696C64.1564 23.1696 64.5668 23.0184 64.8692 22.77L64.4804 22.0356ZM69.5784 16.5276C69.924 16.5276 70.2156 16.2252 70.2156 15.8796C70.2156 15.5448 69.924 15.2424 69.5784 15.2424C69.2112 15.2424 68.9304 15.5448 68.9304 15.8796C68.9304 16.2252 69.2112 16.5276 69.5784 16.5276ZM69.0384 23.04H70.1076V17.4564H69.0384V23.04ZM74.2679 22.0356C74.1491 22.1544 73.9331 22.2408 73.6955 22.2408C73.3823 22.2408 73.1231 21.96 73.1231 21.5712V18.3636H74.4407V17.4564H73.1231V15.9228H72.0755V17.4564H71.2331V18.3636H72.0755V21.6468C72.0755 22.5432 72.6803 23.1696 73.5443 23.1696C73.9439 23.1696 74.3543 23.0184 74.6567 22.77L74.2679 22.0356ZM82.4331 23.1696C84.5175 23.1696 86.2671 21.4092 86.2671 19.3248C86.2671 17.2404 84.5175 15.4908 82.4331 15.4908C80.3487 15.4908 78.5775 17.2404 78.5775 19.3248C78.5775 21.4092 80.3487 23.1696 82.4331 23.1696ZM82.4331 22.1652C80.9535 22.1652 79.7007 20.8692 79.7007 19.3248C79.7007 17.7912 80.9535 16.4952 82.4331 16.4952C83.9127 16.4952 85.1547 17.7912 85.1547 19.3248C85.1547 20.8692 83.9127 22.1652 82.4331 22.1652ZM90.4099 17.3268C89.6539 17.3268 88.9735 17.7156 88.6387 18.2664V17.4564H87.5695V23.04H88.6387V19.422C88.7251 18.7632 89.3947 18.2556 90.1723 18.2556C90.9283 18.2556 91.4575 18.8388 91.4575 19.6704V23.04H92.5051V19.4868C92.5051 18.2232 91.6411 17.3268 90.4099 17.3268Z" fill="white"/>
<path d="M52.431 32.7424H54.8502V34.33C54.2605 34.7534 53.5347 34.9953 52.8241 34.9953C51.055 34.9953 49.5582 33.4531 49.5582 31.6387C49.5582 29.8394 51.055 28.2972 52.8241 28.2972C53.7766 28.2972 54.7897 28.7508 55.4096 29.4614L57.0274 28.0099C55.9842 26.9212 54.3814 26.2711 52.8241 26.2711C49.8152 26.2711 47.2599 28.7205 47.2599 31.6387C47.2599 34.5568 49.8152 37.0214 52.8241 37.0214C54.3814 37.0214 55.9842 36.3712 57.0274 35.2826V31.0036H52.431V32.7424ZM62.6848 37.0214C64.9982 37.0214 66.9335 35.1465 66.9335 32.9239C66.9335 30.7012 64.9982 28.8415 62.6848 28.8415C60.3563 28.8415 58.4058 30.7012 58.4058 32.9239C58.4058 35.1465 60.3563 37.0214 62.6848 37.0214ZM62.6848 35.1616C61.5054 35.1616 60.5226 34.1335 60.5226 32.9239C60.5226 31.7143 61.5054 30.7012 62.6848 30.7012C63.849 30.7012 64.8318 31.7143 64.8318 32.9239C64.8318 34.1335 63.849 35.1616 62.6848 35.1616ZM72.2677 37.0214C74.5811 37.0214 76.5164 35.1465 76.5164 32.9239C76.5164 30.7012 74.5811 28.8415 72.2677 28.8415C69.9392 28.8415 67.9887 30.7012 67.9887 32.9239C67.9887 35.1465 69.9392 37.0214 72.2677 37.0214ZM72.2677 35.1616C71.0883 35.1616 70.1055 34.1335 70.1055 32.9239C70.1055 31.7143 71.0883 30.7012 72.2677 30.7012C73.4319 30.7012 74.4147 31.7143 74.4147 32.9239C74.4147 34.1335 73.4319 35.1616 72.2677 35.1616ZM83.665 29.0229V30.0813C83.1358 29.3404 82.1379 28.8415 81.0795 28.8415C79.1139 28.8415 77.617 30.3686 77.617 32.5459C77.617 34.7232 79.1139 36.2654 81.0795 36.2654C82.1076 36.2654 83.0451 35.8118 83.665 35.0558V35.9176C83.665 36.9307 82.7578 37.5808 81.3365 37.5808C80.4293 37.5808 79.5221 37.2936 79.008 36.84L78.2369 38.3973C79.008 39.0021 80.3083 39.4406 81.6843 39.4406C84.1488 39.4406 85.8876 38.0193 85.8876 36.0084V29.0229H83.665ZM81.775 34.4056C80.6712 34.4056 79.885 33.6345 79.885 32.5459C79.885 31.4572 80.6712 30.7012 81.775 30.7012C82.8787 30.7012 83.665 31.4572 83.665 32.5459C83.665 33.6345 82.8787 34.4056 81.775 34.4056ZM87.8293 36.84H90.0368V26.2711H87.8293V36.84ZM95.6529 35.0709C94.7306 35.0709 94.0502 34.4964 93.7931 33.6496H99.4329C99.4329 30.7012 97.9965 28.8415 95.5471 28.8415C93.2639 28.8415 91.5251 30.55 91.5251 32.9088C91.5251 35.3128 93.3395 37.0214 95.668 37.0214C96.8171 37.0214 98.1628 36.5376 98.8583 35.8118L97.4522 34.3754C97.0288 34.7836 96.2728 35.0709 95.6529 35.0709ZM95.6378 30.792C96.5299 30.792 97.1044 31.2909 97.3161 32.062H93.8234C94.1107 31.2758 94.8062 30.792 95.6378 30.792ZM105.21 36.84H107.432V33.4682H109.882C112.135 33.4682 113.798 32.0167 113.798 29.9604C113.798 27.904 112.135 26.4525 109.882 26.4525H105.21V36.84ZM107.432 31.427V28.4937H109.64C110.744 28.4937 111.5 29.0683 111.5 29.9604C111.5 30.8524 110.744 31.427 109.64 31.427H107.432ZM115.131 36.84H117.338V26.2711H115.131V36.84ZM122.758 28.8415C121.669 28.8415 120.596 29.1439 119.492 29.7033L120.233 31.17C120.853 30.8524 121.533 30.6105 122.259 30.6105C123.544 30.6105 124.058 31.3363 124.058 32.1679V32.3191C123.393 32.062 122.698 31.926 122.062 31.926C120.248 31.926 118.812 32.9844 118.812 34.5266C118.812 36.0235 120.097 37.0214 121.76 37.0214C122.607 37.0214 123.499 36.6888 124.058 36.0537V36.84H126.19V32.1679C126.19 30.1267 124.799 28.8415 122.758 28.8415ZM122.259 35.4943C121.503 35.4943 120.944 35.1012 120.944 34.4661C120.944 33.8311 121.579 33.3624 122.38 33.3624C122.985 33.3624 123.559 33.4682 124.058 33.6496V34.3754C123.907 35.1012 123.106 35.4943 122.259 35.4943ZM129.835 39.5616C131.06 39.5616 132.058 38.7602 132.647 37.2331L135.853 29.0229H133.6L131.649 34.5115L129.593 29.0229H127.31L130.561 36.9156L130.289 37.4901C130.122 37.7774 129.79 37.9135 129.366 37.9135C129.109 37.9135 128.716 37.7774 128.338 37.5657L127.869 39.0777C128.399 39.365 129.185 39.5616 129.835 39.5616Z" fill="white"/>
<g filter="url(#filter0_ii_1_20)">
<path d="M14.74 13.3889C14.4257 13.7215 14.2399 14.2378 14.2399 14.9063V38.7916C14.2399 39.4612 14.4257 39.9763 14.74 40.309L14.8199 40.3867L28.2 27.0066V26.8489V26.6913L14.8199 13.3101L14.74 13.3889Z" fill="url(#paint0_linear_1_20)"/>
<path d="M32.6593 31.4681L28.2 27.0066V26.849V26.6913L32.6604 22.2309L32.7609 22.2881L38.0453 25.2905C39.5541 26.148 39.5541 27.551 38.0453 28.4096L32.7609 31.412L32.6593 31.4681Z" fill="url(#paint1_linear_1_20)"/>
<g filter="url(#filter1_i_1_20)">
<path d="M32.7607 31.4109L28.1988 26.849L14.7398 40.309C15.2366 40.836 16.0585 40.9008 16.9841 40.376L32.7607 31.4109Z" fill="url(#paint2_linear_1_20)"/>
</g>
<path d="M32.7607 22.287L16.9841 13.323C16.0585 12.797 15.2366 12.8629 14.7398 13.39L28.1999 26.85L32.7607 22.287Z" fill="url(#paint3_linear_1_20)"/>
</g>
<defs>
<filter id="filter0_ii_1_20" x="14.2399" y="12.96" width="24.937" height="27.7785" filterUnits="userSpaceOnUse" color-interpolation-filters="sRGB">
<feFlood flood-opacity="0" result="BackgroundImageFix"/>
<feBlend mode="normal" in="SourceGraphic" in2="BackgroundImageFix" result="shape"/>
<feColorMatrix in="SourceAlpha" type="matrix" values="0 0 0 0 0 0 0 0 0 0 0 0 0 0 0 0 0 0 127 0" result="hardAlpha"/>
<feOffset dy="-0.15"/>
<feComposite in2="hardAlpha" operator="arithmetic" k2="-1" k3="1"/>
<feColorMatrix type="matrix" values="0 0 0 0 0 0 0 0 0 0 0 0 0 0 0 0 0 0 0.12 0"/>
<feBlend mode="normal" in2="shape" result="effect1_innerShadow_1_20"/>
<feColorMatrix in="SourceAlpha" type="matrix" values="0 0 0 0 0 0 0 0 0 0 0 0 0 0 0 0 0 0 127 0" result="hardAlpha"/>
<feOffset dy="0.15"/>
<feComposite in2="hardAlpha" operator="arithmetic" k2="-1" k3="1"/>
<feColorMatrix type="matrix" values="0 0 0 0 1 0 0 0 0 1 0 0 0 0 1 0 0 0 0.25 0"/>
<feBlend mode="normal" in2="effect1_innerShadow_1_20" result="effect2_innerShadow_1_20"/>
</filter>
<filter id="filter1_i_1_20" x="14.7398" y="26.849" width="18.0209" height="13.8895" filterUnits="userSpaceOnUse" color-interpolation-filters="sRGB">
<feFlood flood-opacity="0" result="BackgroundImageFix"/>
<feBlend mode="normal" in="SourceGraphic" in2="BackgroundImageFix" result="shape"/>
<feColorMatrix in="SourceAlpha" type="matrix" values="0 0 0 0 0 0 0 0 0 0 0 0 0 0 0 0 0 0 127 0" result="hardAlpha"/>
<feOffset dy="-0.15"/>
<feComposite in2="hardAlpha" operator="arithmetic" k2="-1" k3="1"/>
<feColorMatrix type="matrix" values="0 0 0 0 0 0 0 0 0 0 0 0 0 0 0 0 0 0 0.08 0"/>
<feBlend mode="normal" in2="shape" result="effect1_innerShadow_1_20"/>
</filter>
<linearGradient id="paint0_linear_1_20" x1="27.0139" y1="14.6536" x2="8.88938" y2="32.7781" gradientUnits="userSpaceOnUse">
<stop stop-color="#00A0FF"/>
<stop offset="0.0066" stop-color="#00A1FF"/>
<stop offset="0.2601" stop-color="#00BEFF"/>
<stop offset="0.5122" stop-color="#00D2FF"/>
<stop offset="0.7604" stop-color="#00DFFF"/>
<stop offset="1" stop-color="#00E3FF"/>
</linearGradient>
<linearGradient id="paint1_linear_1_20" x1="40.0093" y1="26.849" x2="13.8777" y2="26.849" gradientUnits="userSpaceOnUse">
<stop stop-color="#FFE000"/>
<stop offset="0.4087" stop-color="#FFBD00"/>
<stop offset="0.7754" stop-color="#FFA500"/>
<stop offset="1" stop-color="#FF9C00"/>
</linearGradient>
<linearGradient id="paint2_linear_1_20" x1="30.2833" y1="29.3264" x2="5.70413" y2="53.9055" gradientUnits="userSpaceOnUse">
<stop stop-color="#FF3A44"/>
<stop offset="1" stop-color="#C31162"/>
</linearGradient>
<linearGradient id="paint3_linear_1_20" x1="11.3501" y1="5.43878" x2="22.3254" y2="16.4141" gradientUnits="userSpaceOnUse">
<stop stop-color="#32A071"/>
<stop offset="0.0685" stop-color="#2DA771"/>
<stop offset="0.4762" stop-color="#15CF74"/>
<stop offset="0.8009" stop-color="#06E775"/>
<stop offset="1" stop-color="#00F076"/>
</linearGradient>
</defs>
</svg>
