<svg width="16" height="14" viewBox="0 0 16 14" fill="none" xmlns="http://www.w3.org/2000/svg">
<path d="M6.39173 0.887801L0.341591 10.1555C-0.539477 11.5052 0.386124 13.334 1.94986 13.334H14.0499C15.6139 13.334 16.5392 11.5052 15.6584 10.1555L9.60854 0.887801C8.83574 -0.295934 7.16454 -0.295934 6.39173 0.887801Z" fill="#FFC239"/>
<path d="M15.6584 10.1555L9.60827 0.887801C8.83547 -0.295934 7.16427 -0.295934 6.39147 0.887801L0.341591 10.1555C-0.539477 11.5052 0.386124 13.334 1.94986 13.334H14.0499C15.6139 13.3337 16.5395 11.5052 15.6584 10.1555ZM15.2747 12.0489C15.02 12.5196 14.5621 12.8006 14.0499 12.8006H1.94986C1.43759 12.8006 0.979725 12.5196 0.725058 12.0489C0.590179 11.801 0.524821 11.5213 0.5359 11.2393C0.546978 10.9573 0.634081 10.6836 0.787991 10.447L6.83813 1.17954C7.10613 0.768868 7.5296 0.533401 8 0.533401C8.4704 0.533401 8.89387 0.768868 9.1616 1.17927L15.2117 10.4467C15.3658 10.6833 15.453 10.9571 15.464 11.2391C15.4751 11.5212 15.4097 11.801 15.2747 12.0489Z" fill="#393A3A"/>
<path d="M7.99997 12.0001C8.4418 12.0001 8.79997 11.6419 8.79997 11.2001C8.79997 10.7583 8.4418 10.4001 7.99997 10.4001C7.55814 10.4001 7.19997 10.7583 7.19997 11.2001C7.19997 11.6419 7.55814 12.0001 7.99997 12.0001Z" fill="#393A3A"/>
<path d="M8.04646 9.60017H7.95393C7.82083 9.60018 7.69253 9.55043 7.59424 9.46067C7.49595 9.37092 7.43478 9.24766 7.42273 9.1151L6.9334 3.73349C6.9334 3.45059 7.04578 3.17928 7.24582 2.97924C7.44585 2.77921 7.71717 2.66682 8.00006 2.66682C8.28296 2.66682 8.55427 2.77921 8.75431 2.97924C8.95435 3.17928 9.06673 3.45059 9.06673 3.73349L8.5774 9.1151C8.56536 9.24761 8.50422 9.37084 8.40598 9.46058C8.30775 9.55033 8.17952 9.60012 8.04646 9.60017Z" fill="#393A3A"/>
</svg>
