<svg width="40" height="40" viewBox="0 0 40 40" fill="none" xmlns="http://www.w3.org/2000/svg">
<circle opacity="0.8" cx="20" cy="20" r="20" fill="#0E0E0E"/>
<path d="M26.6667 14.6667H23.3333V13.3333C23.3333 12.9797 23.1929 12.6406 22.9428 12.3905C22.6928 12.1405 22.3536 12 22 12H18C17.6464 12 17.3072 12.1405 17.0572 12.3905C16.8071 12.6406 16.6667 12.9797 16.6667 13.3333V14.6667H13.3333V16H14.6667V26C14.6667 26.5304 14.8774 27.0391 15.2525 27.4142C15.6275 27.7893 16.1362 28 16.6667 28H23.3333C23.8638 28 24.3725 27.7893 24.7475 27.4142C25.1226 27.0391 25.3333 26.5304 25.3333 26V16H26.6667V14.6667ZM18 13.3333H22V14.6667H18V13.3333ZM24 26C24 26.1768 23.9298 26.3464 23.8047 26.4714C23.6797 26.5964 23.5101 26.6667 23.3333 26.6667H16.6667C16.4899 26.6667 16.3203 26.5964 16.1953 26.4714C16.0702 26.3464 16 26.1768 16 26V16H24V26Z" fill="white"/>
<path d="M18 18.6667H19.3333V24H18V18.6667ZM20.6667 18.6667H22V24H20.6667V18.6667Z" fill="white"/>
</svg>
