<svg width="40" height="40" viewBox="0 0 40 40" fill="none" xmlns="http://www.w3.org/2000/svg">
<circle opacity="0.8" cx="20" cy="20" r="20" fill="#0E0E0E"/>
<path d="M13.067 16.8C13.067 16.9415 13.0108 17.0771 12.9108 17.1771C12.8107 17.2772 12.6751 17.3333 12.5336 17.3333C12.3922 17.3333 12.2565 17.2772 12.1565 17.1771C12.0565 17.0771 12.0003 16.9415 12.0003 16.8V16C12.0003 15.4342 12.2251 14.8916 12.6251 14.4915C13.0252 14.0915 13.5678 13.8667 14.1336 13.8667H25.2192V12.5334C25.2192 12.4259 25.2516 12.321 25.3122 12.2324C25.3728 12.1437 25.4588 12.0754 25.5589 12.0364C25.659 11.9974 25.7685 11.9895 25.8732 12.0138C25.9778 12.0381 26.0726 12.0935 26.1453 12.1726L27.86 14.0392C27.9504 14.1376 28.0005 14.2664 28.0005 14.4C28.0005 14.5337 27.9504 14.6624 27.86 14.7608L26.1453 16.6275C26.0726 16.7066 25.9778 16.7619 25.8732 16.7862C25.7685 16.8105 25.659 16.8027 25.5589 16.7637C25.4588 16.7247 25.3728 16.6564 25.3122 16.5677C25.2516 16.479 25.2192 16.3741 25.2192 16.2667V14.9334H14.1336C13.8507 14.9334 13.5794 15.0457 13.3794 15.2458C13.1793 15.4458 13.067 15.7171 13.067 16V16.8ZM26.9336 23.2C26.9336 23.0585 26.9898 22.9229 27.0898 22.8229C27.1898 22.7228 27.3255 22.6667 27.4669 22.6667C27.6083 22.6667 27.744 22.7228 27.844 22.8229C27.944 22.9229 28.0002 23.0585 28.0002 23.2V24C28.0002 24.5658 27.7755 25.1084 27.3754 25.5085C26.9753 25.9085 26.4327 26.1333 25.8669 26.1333H14.7814V27.4666C14.7814 27.5741 14.7489 27.679 14.6883 27.7676C14.6277 27.8563 14.5417 27.9246 14.4416 27.9636C14.3415 28.0026 14.232 28.0105 14.1274 27.9862C14.0227 27.9619 13.9279 27.9065 13.8552 27.8274L12.1406 25.9608C12.0502 25.8624 12 25.7336 12 25.6C12 25.4663 12.0502 25.3376 12.1406 25.2392L13.8552 23.3725C13.9279 23.2934 14.0227 23.2381 14.1274 23.2138C14.232 23.1895 14.3415 23.1973 14.4416 23.2363C14.5417 23.2753 14.6277 23.3436 14.6883 23.4323C14.7489 23.521 14.7814 23.6259 14.7814 23.7333V25.0666H25.8669C26.1498 25.0666 26.4211 24.9543 26.6212 24.7542C26.8212 24.5542 26.9336 24.2829 26.9336 24V23.2Z" fill="white"/>
</svg>
