<svg width="40" height="40" viewBox="0 0 40 40" fill="none" xmlns="http://www.w3.org/2000/svg">
<circle opacity="0.8" cx="20" cy="20" r="20" fill="#0E0E0E"/>
<path d="M27.8983 19.8009C27.7554 19.6054 24.3497 15.0132 19.9999 15.0132C15.6502 15.0132 12.2443 19.6054 12.1015 19.8008C12.0356 19.8911 12 20.0002 12 20.1121C12 20.224 12.0356 20.333 12.1015 20.4234C12.2443 20.6189 15.6502 25.2111 19.9999 25.2111C24.3497 25.2111 27.7554 20.6189 27.8983 20.4235C27.9644 20.3332 28 20.2242 28 20.1122C28 20.0003 27.9644 19.8913 27.8983 19.8009ZM19.9999 24.1561C16.7959 24.1561 14.0208 21.1082 13.1994 20.1118C14.0198 19.1145 16.789 16.0682 19.9999 16.0682C23.2038 16.0682 25.9787 19.1156 26.8005 20.1125C25.9801 21.1098 23.2108 24.1561 19.9999 24.1561Z" fill="white"/>
<path d="M19.9999 16.9473C18.2549 16.9473 16.8351 18.3671 16.8351 20.1122C16.8351 21.8572 18.2549 23.277 19.9999 23.277C21.745 23.277 23.1648 21.8572 23.1648 20.1122C23.1648 18.3671 21.745 16.9473 19.9999 16.9473ZM19.9999 22.2221C18.8365 22.2221 17.89 21.2756 17.89 20.1122C17.89 18.9488 18.8365 18.0023 19.9999 18.0023C21.1633 18.0023 22.1098 18.9488 22.1098 20.1122C22.1098 21.2756 21.1634 22.2221 19.9999 22.2221Z" fill="white"/>
</svg>
