<svg width="31" height="31" viewBox="0 0 31 31" fill="none" xmlns="http://www.w3.org/2000/svg">
<path d="M15.7119 4.16963C12.6922 4.16963 12.3133 4.18284 11.1273 4.23681C9.94361 4.29101 9.13565 4.47842 8.42869 4.75338C7.69741 5.03738 7.07708 5.41728 6.45906 6.03554C5.84059 6.65357 5.4607 7.27392 5.17578 8.00499C4.90013 8.71221 4.71251 9.52042 4.65923 10.7037C4.60618 11.8897 4.59229 12.2689 4.59229 15.2886C4.59229 18.3084 4.60572 18.6862 4.65946 19.8722C4.7139 21.0559 4.90129 21.8639 5.17602 22.5709C5.46024 23.3022 5.84012 23.9225 6.45837 24.5406C7.07615 25.1591 7.69648 25.5399 8.4273 25.8239C9.13473 26.0989 9.94291 26.2863 11.1264 26.3405C12.3123 26.3944 12.6911 26.4076 15.7105 26.4076C18.7304 26.4076 19.1082 26.3944 20.2942 26.3405C21.4778 26.2863 22.2867 26.0989 22.9941 25.8239C23.7252 25.5399 24.3446 25.1591 24.9624 24.5406C25.5809 23.9225 25.9607 23.3022 26.2457 22.5711C26.519 21.8639 26.7066 21.0557 26.7622 19.8724C26.8155 18.6864 26.8294 18.3084 26.8294 15.2886C26.8294 12.2689 26.8155 11.8899 26.7622 10.7039C26.7066 9.52019 26.519 8.71221 26.2457 8.00523C25.9607 7.27392 25.5809 6.65357 24.9624 6.03554C24.3439 5.41705 23.7254 5.03715 22.9935 4.75338C22.2846 4.47842 21.4762 4.29101 20.2925 4.23681C19.1066 4.18284 18.729 4.16963 15.7084 4.16963H15.7119ZM14.7144 6.17337C15.0105 6.17291 15.3408 6.17337 15.7119 6.17337C18.6806 6.17337 19.0324 6.18403 20.2048 6.2373C21.2888 6.28688 21.8772 6.46802 22.2691 6.62021C22.788 6.82175 23.1579 7.06266 23.5468 7.45182C23.936 7.84099 24.1769 8.21162 24.3789 8.73051C24.5311 9.12199 24.7124 9.71037 24.7618 10.7945C24.8151 11.9666 24.8266 12.3187 24.8266 15.2861C24.8266 18.2535 24.8151 18.6056 24.7618 19.7777C24.7122 20.8618 24.5311 21.4502 24.3789 21.8417C24.1774 22.3606 23.936 22.73 23.5468 23.119C23.1577 23.5081 22.7882 23.749 22.2691 23.9506C21.8776 24.1035 21.2888 24.2841 20.2048 24.3337C19.0327 24.387 18.6806 24.3986 15.7119 24.3986C12.743 24.3986 12.3911 24.387 11.219 24.3337C10.1349 24.2837 9.54658 24.1025 9.15441 23.9503C8.63554 23.7488 8.26492 23.5079 7.87577 23.1187C7.48661 22.7296 7.24571 22.3599 7.04372 21.8407C6.89153 21.4493 6.71016 20.8609 6.66082 19.7768C6.60754 18.6046 6.59689 18.2525 6.59689 15.2833C6.59689 12.3141 6.60754 11.9638 6.66082 10.7917C6.71039 9.70759 6.89153 9.11921 7.04372 8.72727C7.24525 8.20838 7.48661 7.83775 7.87577 7.44858C8.26492 7.05942 8.63554 6.8185 9.15441 6.61651C9.54635 6.46362 10.1349 6.28294 11.219 6.23313C12.2447 6.18681 12.6422 6.17291 14.7144 6.17059V6.17337ZM21.6469 8.01959C20.9103 8.01959 20.3127 8.61654 20.3127 9.3534C20.3127 10.09 20.9103 10.6877 21.6469 10.6877C22.3835 10.6877 22.9812 10.09 22.9812 9.3534C22.9812 8.61677 22.3835 8.01912 21.6469 8.01912V8.01959ZM15.7119 9.57856C12.5586 9.57856 10.002 12.1352 10.002 15.2886C10.002 18.442 12.5586 20.9976 15.7119 20.9976C18.8652 20.9976 21.4209 18.442 21.4209 15.2886C21.4209 12.1352 18.865 9.57856 15.7116 9.57856H15.7119ZM15.7119 11.5823C17.7586 11.5823 19.4181 13.2416 19.4181 15.2886C19.4181 17.3355 17.7586 18.995 15.7119 18.995C13.6649 18.995 12.0057 17.3355 12.0057 15.2886C12.0057 13.2416 13.6649 11.5823 15.7119 11.5823Z" fill="url(#paint0_radial_3804_11492)"/>
<path d="M15.7119 4.16962C12.6922 4.16962 12.3133 4.18282 11.1273 4.23679C9.94361 4.291 9.13565 4.4784 8.42869 4.75336C7.69741 5.03736 7.07708 5.41726 6.45906 6.03553C5.84059 6.65356 5.4607 7.2739 5.17578 8.00498C4.90013 8.71219 4.71251 9.52041 4.65923 10.7037C4.60618 11.8897 4.59229 12.2689 4.59229 15.2886C4.59229 18.3084 4.60572 18.6862 4.65946 19.8722C4.7139 21.0559 4.90129 21.8639 5.17602 22.5709C5.46024 23.3022 5.84012 23.9225 6.45837 24.5406C7.07615 25.1591 7.69648 25.5399 8.4273 25.8239C9.13473 26.0988 9.94291 26.2862 11.1264 26.3405C12.3123 26.3944 12.6911 26.4076 15.7105 26.4076C18.7304 26.4076 19.1082 26.3944 20.2942 26.3405C21.4778 26.2862 22.2867 26.0988 22.9942 25.8239C23.7252 25.5399 24.3446 25.1591 24.9624 24.5406C25.5809 23.9225 25.9607 23.3022 26.2457 22.5711C26.519 21.8639 26.7066 21.0557 26.7622 19.8724C26.8155 18.6864 26.8294 18.3084 26.8294 15.2886C26.8294 12.2689 26.8155 11.8899 26.7622 10.7039C26.7066 9.52018 26.519 8.71219 26.2457 8.00521C25.9607 7.2739 25.5809 6.65356 24.9624 6.03553C24.3439 5.41703 23.7254 5.03713 22.9935 4.75336C22.2846 4.4784 21.4762 4.291 20.2925 4.23679C19.1066 4.18282 18.729 4.16962 15.7084 4.16962H15.7119ZM14.7144 6.17335C15.0105 6.17289 15.3408 6.17335 15.7119 6.17335C18.6806 6.17335 19.0324 6.18401 20.2048 6.23729C21.2888 6.28686 21.8772 6.46801 22.2691 6.6202C22.788 6.82173 23.1579 7.06264 23.5468 7.45181C23.936 7.84097 24.1769 8.21161 24.3789 8.73049C24.5311 9.12198 24.7124 9.71036 24.7618 10.7945C24.8151 11.9666 24.8266 12.3187 24.8266 15.2861C24.8266 18.2535 24.8151 18.6056 24.7618 19.7777C24.7122 20.8618 24.5311 21.4502 24.3789 21.8417C24.1774 22.3605 23.936 22.73 23.5468 23.119C23.1577 23.5081 22.7882 23.749 22.2691 23.9506C21.8776 24.1034 21.2888 24.2841 20.2048 24.3337C19.0327 24.387 18.6806 24.3986 15.7119 24.3986C12.743 24.3986 12.3911 24.387 11.219 24.3337C10.1349 24.2837 9.54658 24.1025 9.15441 23.9503C8.63554 23.7488 8.26492 23.5079 7.87577 23.1187C7.48661 22.7296 7.24571 22.3598 7.04372 21.8407C6.89153 21.4492 6.71016 20.8609 6.66082 19.7768C6.60754 18.6046 6.59689 18.2525 6.59689 15.2833C6.59689 12.3141 6.60754 11.9638 6.66082 10.7917C6.71039 9.70758 6.89153 9.1192 7.04372 8.72725C7.24525 8.20836 7.48661 7.83773 7.87577 7.44857C8.26492 7.0594 8.63554 6.81849 9.15441 6.61649C9.54635 6.46361 10.1349 6.28292 11.219 6.23312C12.2447 6.18679 12.6422 6.17289 14.7144 6.17057V6.17335ZM21.6469 8.01957C20.9103 8.01957 20.3127 8.61652 20.3127 9.35339C20.3127 10.09 20.9103 10.6877 21.6469 10.6877C22.3835 10.6877 22.9812 10.09 22.9812 9.35339C22.9812 8.61676 22.3835 8.01911 21.6469 8.01911V8.01957ZM15.7119 9.57855C12.5586 9.57855 10.002 12.1352 10.002 15.2886C10.002 18.442 12.5586 20.9975 15.7119 20.9975C18.8652 20.9975 21.4209 18.442 21.4209 15.2886C21.4209 12.1352 18.865 9.57855 15.7117 9.57855H15.7119ZM15.7119 11.5823C17.7586 11.5823 19.4181 13.2416 19.4181 15.2886C19.4181 17.3354 17.7586 18.995 15.7119 18.995C13.6649 18.995 12.0057 17.3354 12.0057 15.2886C12.0057 13.2416 13.6649 11.5823 15.7119 11.5823Z" fill="url(#paint1_radial_3804_11492)"/>
<defs>
<radialGradient id="paint0_radial_3804_11492" cx="0" cy="0" r="1" gradientUnits="userSpaceOnUse" gradientTransform="translate(10.499 28.1204) rotate(-90) scale(22.0395 20.4976)">
<stop stop-color="#FFDD55"/>
<stop offset="0.1" stop-color="#FFDD55"/>
<stop offset="0.5" stop-color="#FF543E"/>
<stop offset="1" stop-color="#C837AB"/>
</radialGradient>
<radialGradient id="paint1_radial_3804_11492" cx="0" cy="0" r="1" gradientUnits="userSpaceOnUse" gradientTransform="translate(0.867452 5.77161) rotate(78.6811) scale(9.85174 40.6078)">
<stop stop-color="#3771C8"/>
<stop offset="0.128" stop-color="#3771C8"/>
<stop offset="1" stop-color="#6600FF" stop-opacity="0"/>
</radialGradient>
</defs>
</svg>
