<svg width="32" height="31" viewBox="0 0 32 31" fill="none" xmlns="http://www.w3.org/2000/svg">
<path d="M5.07446 5.99657C5.07446 5.14751 5.76276 4.45921 6.61182 4.45921H25.196C26.0451 4.45921 26.7334 5.14751 26.7334 5.99657V24.5807C26.7334 25.4298 26.0451 26.1181 25.196 26.1181H6.61182C5.76276 26.1181 5.07446 25.4298 5.07446 24.5807V5.99657Z" fill="#0A66C2"/>
<path d="M9.93579 11.1854C10.9735 11.1854 11.8147 10.3442 11.8147 9.3065C11.8147 8.26881 10.9735 7.4276 9.93579 7.4276C8.8981 7.4276 8.05688 8.26881 8.05688 9.3065C8.05688 10.3442 8.8981 11.1854 9.93579 11.1854Z" fill="white"/>
<path d="M13.5355 12.574H16.6494V14.0005C16.6494 14.0005 17.4944 12.3105 19.7936 12.3105C21.8445 12.3105 23.5435 13.3208 23.5435 16.4004V22.8945H20.3166V17.1873C20.3166 15.3706 19.3467 15.1708 18.6076 15.1708C17.0738 15.1708 16.8112 16.4938 16.8112 17.4243V22.8945H13.5355V12.574Z" fill="white"/>
<path d="M8.2979 12.574H11.5737V22.8945H8.2979V12.574Z" fill="white"/>
</svg>
