<svg width="720" height="960" viewBox="0 0 720 960" fill="none" xmlns="http://www.w3.org/2000/svg">
<path d="M0 0H720V960H0V0Z" fill="#1D4ED8"/>
<g clip-path="url(#clip0_1623_4408)">
<path d="M-5.39831 293.264L-176.999 392.339V631.975C-176.999 642.252 -174.294 652.347 -169.154 661.246C-164.014 670.145 -156.621 677.534 -147.719 682.669L59.0396 801.951V751.869L229.182 652.663V430.383L-5.39831 293.264Z" fill="#EDEDED"/>
<path d="M-5.39831 293.264L-176.999 392.339V631.975C-176.999 642.252 -174.294 652.347 -169.154 661.246C-164.014 670.145 -156.621 677.534 -147.719 682.669L59.0396 801.951V751.869L229.182 652.663V430.383L-5.39831 293.264Z" fill="#EDEDED"/>
<path d="M59.04 528.615L229.183 430.383V652.668L59.0388 751.875L59.04 528.615Z" fill="#CECECE"/>
<path d="M387.748 608.551C385.686 595.52 380.744 583.113 373.282 572.232C365.82 561.352 356.025 552.273 344.611 545.656L231.541 480.117C226.371 477.117 220.506 477.697 216.147 480.591L67.3153 566.142C62.5565 568.436 59.04 573.251 59.04 579.29V801.952L231.909 901.87C236.394 904.46 241.441 904.115 245.352 901.833L395.665 815.448C395.821 815.363 395.971 815.279 396.117 815.189L396.122 815.185C399.906 812.906 402.599 808.792 402.599 803.737V797.579C402.599 734.278 397.634 671.075 387.748 608.55V608.551Z" fill="#426EE9"/>
<path d="M7.73907 736.571L-45.9664 698.791C-53.8693 679.043 -67.0312 661.494 -81.9392 652.885C-106.107 638.932 -125.699 653.74 -125.699 685.968C-125.699 718.189 -106.107 755.627 -81.9392 769.58C-70.4862 776.193 -60.0646 776.334 -52.2642 771.237L7.73907 736.571Z" fill="#23292E"/>
<path d="M427.982 795.074C427.982 790.075 425.393 785.433 421.137 782.806L395.138 766.764L395.205 793.935L263.579 870.914C260.209 872.887 256.342 873.843 252.442 873.669C248.542 873.496 244.775 872.199 241.595 869.935L230.64 876.286V901.026L241.779 907.509C244.866 909.307 248.374 910.257 251.947 910.264C255.519 910.271 259.03 909.333 262.124 907.546L413.525 820.211C417.923 817.651 421.572 813.983 424.109 809.572C426.646 805.161 427.981 800.162 427.982 795.074Z" fill="#2E373D"/>
<path d="M194.945 845.038L141.235 807.253C133.335 787.505 120.175 769.955 105.262 761.351C81.0941 747.394 61.502 762.207 61.502 794.429C61.502 826.656 81.0941 864.089 105.262 878.046C116.719 884.66 127.141 884.801 134.941 879.697L194.945 845.038Z" fill="#23292E"/>
<path d="M230.642 901.027V876.286L241.596 869.93C244.64 872.096 248.224 873.376 251.951 873.626C251.433 813.842 246.491 754.167 237.152 695.105C235.09 682.074 230.148 669.666 222.685 658.786C215.223 647.906 205.428 638.827 194.014 632.211L80.9435 566.67C71.2186 561.03 59.04 568.049 59.04 579.291V751.87C86.425 767.811 107.218 793.007 117.674 822.919L118.103 824.157C121.514 833.913 128.314 842.12 137.266 847.283L230.642 901.027Z" fill="#435893"/>
<path d="M400.613 728.607L387.932 752.482C383.618 760.609 377.092 767.348 369.107 771.92L308.972 806.353C299.941 811.522 289.67 814.125 279.268 813.881L249.918 813.183L244.98 810.331C240.814 807.93 235.608 810.933 235.608 815.744V848.112C235.608 856.969 239.001 865.489 245.088 871.922C246.952 872.746 248.929 873.284 250.953 873.518C250.953 873.527 250.958 873.536 250.958 873.545C254.586 873.975 258.262 873.414 261.596 871.922L402.519 789.656C402.388 769.288 401.776 748.933 400.613 728.607Z" fill="#CECECE"/>
<path d="M242.744 682.513L253.405 763.982C254.823 774.818 266.794 780.741 276.265 775.29L378.536 716.443C382.374 714.234 385.468 710.932 387.423 706.959C389.378 702.985 390.106 698.519 389.514 694.13L377.138 602.393C376.582 598.242 371.984 595.997 368.364 598.101L250.553 666.63C247.83 668.213 245.636 670.565 244.247 673.391C242.857 676.217 242.334 679.391 242.744 682.513Z" fill="#2E373D"/>
<path d="M273.581 754.04L375.853 695.194C382.989 691.085 387.174 683.42 386.976 675.32L377.138 602.393C376.578 598.242 371.984 595.997 368.364 598.101L250.553 666.625C245.371 669.638 242.391 675.278 242.668 681.19L250.723 742.733C252.139 753.57 264.11 759.492 273.581 754.04Z" fill="#304E75"/>
<path d="M229.139 758.442L224.074 705.033C223.121 694.981 219.771 685.304 214.304 676.814C208.838 668.324 201.415 661.269 192.658 656.241L91.4506 598.133C86.3338 595.197 79.9541 598.893 79.9541 604.79V646.817C79.954 652.777 81.3533 658.654 84.0394 663.974C86.7255 669.294 90.6232 673.909 95.4189 677.448L215.574 766.115C221.515 770.498 229.837 765.79 229.139 758.442Z" fill="#243B58"/>
<path d="M367.465 598.624L303.727 635.698L364.8 680.767C370.741 685.148 379.064 680.437 378.366 673.093L373.301 619.679C372.595 612.27 370.572 605.171 367.465 598.624Z" fill="#59718B"/>
<path d="M402.524 789.651C402.388 769.288 401.777 748.933 400.613 728.612L387.932 752.487C387.917 752.521 387.899 752.548 387.88 752.581C383.874 760.076 380.913 768.078 379.872 776.509L376.365 804.922L402.524 789.651Z" fill="white"/>
<path d="M297.852 817.143L376.366 772.069L373.231 796.091C372.914 798.515 372.04 800.833 370.679 802.864C369.318 804.895 367.506 806.584 365.384 807.798L318.075 834.869C313.217 837.647 307.022 835.755 304.546 830.732L297.852 817.143Z" fill="#2E373D"/>
<path d="M421.139 782.807L402.253 771.156C402.385 777.319 402.483 783.484 402.525 789.652L263.579 870.915C260.21 872.887 256.343 873.844 252.443 873.67C248.543 873.496 244.776 872.199 241.595 869.935L230.641 876.286L241.793 882.763C244.876 884.554 248.377 885.5 251.943 885.505C255.509 885.509 259.013 884.573 262.101 882.791L413.521 795.442C413.521 795.442 426.236 789.276 421.137 782.807H421.139ZM61.5023 794.435C61.5023 779.055 65.9695 767.654 73.2615 761.446C68.734 757.95 63.984 754.753 59.0415 751.875V728.193L-177 592.561V631.974C-177 642.251 -174.294 652.347 -169.154 661.246C-164.014 670.145 -156.622 677.533 -147.72 682.668L61.8506 803.576L61.9964 803.477C61.6718 800.474 61.5069 797.455 61.5023 794.435Z" fill="#23292E"/>
<path d="M59.0403 728.193V528.617L-177 392.339V592.556L59.0403 728.193Z" fill="#82A5B9"/>
<path d="M149.026 844.963C149.026 877.189 129.433 891.997 105.262 878.046C81.0941 864.089 61.502 826.656 61.502 794.43C61.502 762.208 81.0941 747.394 105.262 761.35C129.433 775.304 149.026 812.736 149.026 844.963Z" fill="#2E373D"/>
<path d="M126.779 832.116C126.779 847.961 117.148 855.244 105.262 848.384C93.3798 841.526 83.7488 823.121 83.7488 807.276C83.7488 791.431 93.3798 784.149 105.262 791.007C117.148 797.87 126.779 816.276 126.779 832.116Z" fill="#CECECE"/>
<path d="M116.931 826.435C116.931 835.025 111.71 838.975 105.262 835.256C98.817 831.537 93.5918 821.553 93.5918 812.962C93.5918 804.366 98.817 800.417 105.262 804.136C111.71 807.86 116.931 817.838 116.931 826.435Z" fill="#627681"/>
<path d="M297.499 825.517C294.354 818.346 287.219 814.049 279.395 813.884C279.352 813.88 279.311 813.88 279.268 813.88L249.923 813.183L249.918 813.187C251.099 833.307 251.721 853.459 251.894 873.626C251.58 873.602 251.264 873.555 250.953 873.517C250.953 873.527 250.958 873.535 250.958 873.545C254.586 873.972 258.261 873.411 261.596 871.922L306.377 845.781L297.499 825.517Z" fill="white"/>
</g>
<mask id="mask0_1623_4408" style="mask-type:alpha" maskUnits="userSpaceOnUse" x="0" y="0" width="171" height="173">
<rect width="171" height="173" fill="#D9D9D9"/>
</mask>
<g mask="url(#mask0_1623_4408)">
<path fill-rule="evenodd" clip-rule="evenodd" d="M-89.8057 -350.948C-76.9584 -349.978 -59.2581 -346.901 -40.7562 -340.345C-18.2289 -332.362 5.61817 -319.173 23.3152 -298.212L23.3942 -298.118L23.4601 -298.015C33.7124 -281.926 56.3887 -236.475 65.5937 -182.623L65.6331 -182.393L65.6133 -182.16C64.2376 -165.945 71.1127 -123.848 110.327 -87.6355L110.447 -87.5247L110.546 -87.3943C121.129 -73.3843 143.73 -32.0496 150.463 22.301C152.256 32.5204 154.313 49.1687 154.677 66.038C155.039 82.7994 153.744 100.11 148.626 111.491C146.659 117.626 139.66 132.68 126.78 145.865C122.832 150.986 112.435 156.862 94.156 159.506C75.6653 162.181 48.8209 161.599 11.6147 153.382C6.36276 152.548 -2.13356 151.57 -10.5661 151.341C-18.5262 151.126 -26.1105 151.594 -30.9114 153.289L-34.9681 151.041C-34.427 150.788 -33.9054 150.554 -33.405 150.338C-27.8887 147.957 -19.012 147.454 -10.4672 147.685C-1.81931 147.919 6.8674 148.923 12.2435 149.779L12.2972 149.788L12.3503 149.799C49.2792 157.959 75.6814 158.483 93.6324 155.886C111.691 153.274 120.916 147.553 123.936 143.562L124.006 143.469L124.088 143.386C136.646 130.564 143.4 115.881 145.172 110.283L145.205 110.179L145.25 110.08C150.037 99.5135 151.383 82.8829 151.021 66.117C150.66 49.4356 148.621 32.9497 146.853 22.8882L146.845 22.8424L146.839 22.7963C140.218 -30.7332 117.991 -71.4002 107.725 -85.0605C67.9316 -121.881 60.5698 -164.808 61.9497 -182.234C52.8336 -235.321 30.4907 -280.134 20.4415 -295.946C3.301 -316.203 -19.8726 -329.064 -41.9779 -336.897C-61.0035 -343.64 -79.1408 -346.623 -91.7622 -347.417L-89.8057 -350.948ZM-108.249 -317.665L-110.196 -314.151C-99.8741 -313.407 -85.4037 -310.935 -70.246 -305.564C-52.0614 -299.12 -33.0182 -288.548 -18.9363 -271.914C-10.6673 -258.895 7.71297 -222.021 15.2213 -178.339C14.091 -163.856 20.211 -128.417 53.0445 -98.0233C61.484 -86.7808 79.7652 -53.3208 85.213 -9.27717L85.2187 -9.231L85.2268 -9.18519C86.6819 -0.903439 88.3613 12.672 88.658 26.4063C88.9567 40.225 87.8431 53.872 83.9292 62.5123L83.8843 62.6113L83.8515 62.715C82.4039 67.2883 76.8591 79.3479 66.5448 89.8794L66.4633 89.9626L66.393 90.0555C63.9798 93.2448 56.478 97.9425 41.6193 100.092C26.8678 102.226 5.14076 101.799 -25.2786 95.0779L-25.3317 95.0661L-25.3854 95.0576C-29.829 94.3496 -37.0049 93.5208 -44.1511 93.3275C-51.1941 93.137 -58.5782 93.5466 -63.1981 95.5407C-68.6424 97.8906 -77.1037 102.841 -85.0176 110.121C-87.8349 112.712 -90.5969 115.612 -93.1333 118.809L-89.888 120.608C-87.5948 117.771 -85.1034 115.169 -82.5415 112.812C-74.9399 105.82 -66.8284 101.091 -61.7487 98.8987C-57.9493 97.2587 -51.3127 96.7925 -44.25 96.9836C-37.3192 97.1711 -30.3336 97.9753 -26.0142 98.661C4.68244 105.439 26.8516 105.924 42.1429 103.712C57.2241 101.53 65.8962 96.6761 69.2362 92.3583C79.874 81.4646 85.663 69.0322 87.3052 63.9228C91.5501 54.4689 92.6131 40.142 92.3146 26.3272C92.0138 12.4051 90.3173 -1.33271 88.837 -9.77235C83.2778 -54.637 64.6226 -88.7646 55.8657 -100.357L55.7672 -100.487L55.6472 -100.598C23.3927 -130.383 17.7586 -164.992 18.8848 -178.266L18.9046 -178.499L18.8652 -178.729C11.2678 -223.175 -7.44565 -260.688 -15.9176 -273.982L-15.9835 -274.086L-16.0625 -274.179C-30.701 -291.518 -50.4176 -302.418 -69.0243 -309.011C-83.6918 -314.209 -97.7512 -316.76 -108.249 -317.665ZM-136.556 94.7471C-130.298 92.2459 -127.463 88.4261 -126.861 85.7511C-124.497 77.1889 -119.065 70.0597 -113.126 64.5961C-107.176 59.1229 -100.829 55.4248 -96.8695 53.7159C-93.9665 52.4628 -88.8225 52.0899 -83.2616 52.2403C-77.8326 52.3872 -72.3579 53.0169 -68.9709 53.554C-44.7838 58.8934 -27.2897 59.2811 -15.1978 57.5319C-3.31343 55.8128 3.6334 51.9806 6.36486 48.4669C14.7601 39.8633 19.3394 30.0523 20.6564 25.9696C24.0287 18.4425 24.8593 7.09926 24.6244 -3.76898C24.3873 -14.7439 23.0509 -25.5711 21.8833 -32.2309C17.4974 -67.6097 2.78841 -94.5303 -4.14209 -103.705L-4.24057 -103.835L-4.36062 -103.946C-29.6551 -127.304 -34.0481 -154.424 -33.1714 -164.758L-33.1517 -164.99L-33.1911 -165.22C-39.1807 -200.261 -53.9316 -229.834 -60.6231 -240.335L-60.6889 -240.439L-60.768 -240.532C-72.348 -254.248 -87.9341 -262.859 -102.62 -268.063C-113.485 -271.913 -123.929 -273.925 -132.03 -274.749L-133.965 -271.257C-125.975 -270.573 -115.153 -268.624 -103.842 -264.616C-89.578 -259.561 -74.6653 -251.278 -63.6418 -238.266C-57.1531 -228.042 -42.7354 -199.106 -36.8349 -164.83C-37.7156 -153.29 -32.8379 -125.338 -6.96365 -101.372C-0.350427 -92.5468 13.9847 -66.2938 18.2592 -31.736L18.265 -31.6898L18.273 -31.644C19.4154 -25.1421 20.7348 -14.4772 20.9679 -3.68995C21.2028 7.18175 20.3219 17.845 17.2805 24.559L17.2357 24.6581L17.2028 24.7617C16.0797 28.31 11.7448 37.7466 3.67429 45.9871L3.59279 46.0703L3.5225 46.1632C1.71599 48.5508 -4.06215 52.2256 -15.7214 53.9122C-27.2736 55.5833 -44.3254 55.2542 -68.2352 49.9709L-68.2883 49.9592L-68.342 49.9506C-71.8531 49.3912 -77.5183 48.7369 -83.1627 48.5842C-88.704 48.4343 -94.5953 48.7507 -98.3189 50.3579C-102.643 52.2242 -109.34 56.1439 -115.602 61.9043C-121.864 67.665 -127.803 75.37 -130.4 84.827L-130.414 84.8767L-130.425 84.9272C-130.711 86.2604 -133.084 90.2526 -140.896 92.3422L-136.556 94.7471Z" fill="white" fill-opacity="0.1"/>
</g>
<mask id="mask1_1623_4408" style="mask-type:alpha" maskUnits="userSpaceOnUse" x="413" y="488" width="307" height="472">
<rect x="413" y="488" width="307" height="472" fill="#FF2222"/>
</mask>
<g mask="url(#mask1_1623_4408)">
<path fill-rule="evenodd" clip-rule="evenodd" d="M451.801 1016.9C444.773 1006.11 436.474 990.171 430.454 971.488C423.123 948.74 419.129 921.783 425.044 894.996L425.07 894.876L425.112 894.761C431.675 876.848 454.03 831.237 491.238 791.233L491.397 791.062L491.594 790.937C505.315 782.187 534.596 751.17 539.57 698.025L539.585 697.863L539.629 697.705C544.339 680.79 563.468 637.739 602.573 599.397C609.606 591.769 621.588 580.029 634.772 569.499C647.873 559.037 662.416 549.559 674.566 546.717C680.636 544.556 696.848 540.98 715.144 543.213C721.61 543.242 732.591 547.938 745.788 560.859C759.137 573.929 774.97 595.616 791.025 630.171C793.55 634.851 797.93 642.197 802.867 649.036C807.528 655.493 812.504 661.236 816.764 664.023L817.44 668.611C816.911 668.334 816.408 668.062 815.933 667.795C810.692 664.857 804.905 658.108 799.901 651.177C794.838 644.163 790.362 636.65 787.78 631.858L787.754 631.81L787.731 631.761C771.799 597.461 756.189 576.161 743.229 563.472C730.192 550.707 720.045 546.848 715.041 546.871L714.924 546.871L714.809 546.857C696.996 544.661 681.228 548.205 675.703 550.195L675.601 550.232L675.495 550.257C664.192 552.867 650.159 561.892 637.055 572.357C624.017 582.769 612.154 594.397 605.231 601.909L605.199 601.944L605.166 601.976C566.646 639.731 547.82 682.08 543.196 698.53C538.09 752.504 508.445 784.412 493.759 793.893C457.105 833.362 435.055 878.32 428.589 895.904C422.895 921.822 426.742 948.044 433.935 970.366C440.125 989.578 448.764 1005.8 455.794 1016.31L451.801 1016.9ZM489.445 1011.36L493.42 1010.77C487.746 1002.12 480.926 989.117 475.994 973.811C470.077 955.448 466.919 933.897 471.59 912.609C476.917 898.135 495.063 861.146 525.219 828.664C537.415 820.77 561.863 794.395 566.086 749.853C569.898 736.322 585.391 701.483 617.086 670.419L617.119 670.386L617.15 670.352C622.848 664.169 632.617 654.594 643.352 646.021C654.152 637.395 665.673 629.997 674.915 627.862L675.021 627.838L675.124 627.801C679.637 626.175 692.586 623.261 707.216 625.065L707.332 625.079L707.448 625.079C711.448 625.061 719.735 628.171 730.462 638.674C741.112 649.102 753.962 666.627 767.085 694.881L767.108 694.93L767.134 694.978C769.269 698.939 772.966 705.145 777.15 710.941C781.274 716.654 786.082 722.273 790.471 724.734C795.643 727.634 804.713 731.354 815.302 733.224C819.072 733.89 823.053 734.324 827.133 734.399L826.592 730.729C822.946 730.628 819.366 730.228 815.938 729.622C805.767 727.826 797.085 724.25 792.26 721.544C788.65 719.52 784.251 714.529 780.116 708.801C776.058 703.179 772.456 697.139 770.379 693.291C757.132 664.782 744.061 646.87 733.021 636.061C722.133 625.4 713.011 621.455 707.553 621.422C692.438 619.58 679.044 622.527 673.987 624.323C663.897 626.688 651.867 634.54 641.069 643.163C630.188 651.853 620.301 661.54 614.492 667.839C582.213 699.491 566.416 735.032 562.519 749.027L562.476 749.185L562.46 749.348C558.369 793.06 534.286 818.545 523.053 825.708L522.856 825.833L522.697 826.004C491.988 859.021 473.536 896.663 468.114 911.466L468.072 911.581L468.045 911.701C463.152 933.859 466.459 956.143 472.513 974.932C477.286 989.744 483.792 1002.47 489.445 1011.36ZM834.37 783.513C828.583 780.058 823.827 780.124 821.335 781.269C813.096 784.588 804.133 784.599 796.186 783.195C788.225 781.789 781.433 778.99 777.672 776.881C774.914 775.335 771.495 771.473 768.239 766.963C765.06 762.559 762.238 757.826 760.608 754.808C750.17 732.346 739.859 718.208 731.129 709.661C722.549 701.26 715.286 698.065 710.836 698.028C698.903 696.578 688.326 698.895 684.282 700.326C676.254 702.215 666.735 708.441 658.241 715.225C649.663 722.075 641.87 729.709 637.286 734.68C611.833 759.641 599.368 787.671 596.284 798.747L596.24 798.905L596.225 799.068C593.017 833.347 574.132 853.301 565.387 858.877L565.19 859.002L565.031 859.173C540.82 885.203 526.273 914.877 521.99 926.569L521.948 926.684L521.921 926.804C518.05 944.332 520.669 961.945 525.447 976.775C528.983 987.746 533.724 997.267 537.986 1004.2L541.936 1003.62C537.629 996.858 532.609 987.075 528.928 975.653C524.287 961.249 521.817 944.371 525.466 927.712C529.653 916.349 543.896 887.327 567.554 861.832C577.259 855.527 596.511 834.684 599.851 799.573C602.85 788.961 615.011 761.633 639.879 737.259L639.913 737.227L639.944 737.193C644.418 732.338 652.092 724.816 660.523 718.083C669.02 711.297 678.029 705.524 685.211 703.865L685.317 703.841L685.419 703.804C688.92 702.543 699.051 700.26 710.499 701.671L710.614 701.685L710.731 701.685C713.725 701.671 720.152 704.032 728.57 712.274C736.91 720.44 746.999 734.191 757.314 756.399L757.337 756.448L757.363 756.496C759.05 759.626 761.969 764.525 765.274 769.103C768.518 773.598 772.346 778.088 775.883 780.071C779.991 782.374 787.171 785.317 795.55 786.797C803.929 788.277 813.657 788.319 822.749 784.643L822.797 784.623L822.844 784.601C824.077 784.02 828.69 783.482 835.093 788.422L834.37 783.513Z" fill="white" fill-opacity="0.1"/>
</g>
<defs>
<clipPath id="clip0_1623_4408">
<rect width="440" height="617" fill="white" transform="translate(0 293)"/>
</clipPath>
</defs>
</svg>
