<svg width="405" height="400" viewBox="0 0 405 400" fill="none" xmlns="http://www.w3.org/2000/svg">
<path fill-rule="evenodd" clip-rule="evenodd" d="M404.097 384.047C393.192 389.051 377.407 394.521 359.406 397.527C337.452 401.192 312.066 401.215 288.177 392.124L288.062 392.081L287.955 392.022C272.339 383.543 233.362 356.762 201.565 317.061L201.419 316.879L201.323 316.666C195.144 302.879 170.588 271.739 122.37 259.959L122.211 259.921L122.062 259.854C107.108 253.215 70.0464 229.749 40.035 188.524C33.962 181.009 24.7755 168.381 16.8664 154.808C9.01143 141.328 2.2451 126.634 1.27254 115.032C0.103516 109.128 -0.987527 93.7052 3.55245 77.1503C4.46723 71.1512 10.3131 61.6554 24.0037 51.2548C37.8643 40.7251 59.9935 29.0842 93.996 18.9863C98.6436 17.2975 105.994 14.2644 112.954 10.6502C119.48 7.26109 125.381 3.50064 128.526 0H133.169C132.823 0.478021 132.485 0.929924 132.157 1.35455C128.722 5.80563 121.699 10.2301 114.64 13.8961C107.488 17.6096 99.9593 20.7135 95.1923 22.4429L95.1411 22.4615L95.089 22.477C61.3564 32.4896 39.6425 43.9674 26.2161 54.1672C12.7036 64.4325 7.80649 73.2245 7.15561 77.7861L7.13915 77.9014L7.10819 78.0137C2.67539 94.0954 3.79954 109.074 4.87887 114.414L4.90041 114.521L4.90917 114.629C5.77677 125.359 12.1693 139.483 20.0264 152.966C27.841 166.377 36.934 178.872 42.9084 186.261L42.9376 186.297L42.965 186.335C72.4809 226.895 108.891 249.959 123.398 256.446C172.417 268.476 197.801 300.107 204.563 314.955C235.913 354.03 274.288 380.414 289.592 388.749C312.653 397.494 337.292 397.511 358.804 393.919C377.353 390.822 393.475 385.058 404.097 380.01V384.047ZM404.097 348.633V344.615C395.368 348.667 382.462 353.193 367.681 355.661C349.987 358.615 329.744 358.598 310.807 351.423C298.212 344.558 266.643 322.849 240.846 290.705C235.208 278.366 214.213 252.271 173.758 242.332C161.829 236.989 131.882 218.013 107.6 184.645L107.572 184.607L107.543 184.571C102.626 178.49 95.1392 168.202 88.7059 157.162C82.23 146.049 76.994 134.458 76.2851 125.69L76.2763 125.582L76.2548 125.475C75.3737 121.116 74.4478 108.818 78.0875 95.6138L78.1185 95.5015L78.135 95.3862C78.6537 91.751 82.609 84.5691 93.7258 76.1238C104.756 67.744 122.621 58.2961 150.405 50.0489L150.457 50.0334L150.509 50.0149C154.45 48.5852 160.67 46.0207 166.58 42.9515C172.399 39.9299 178.249 36.2547 181.129 32.5229C184.51 28.1431 189.171 20.2841 192.334 10.7739C193.463 7.38207 194.406 3.76186 195.03 0H191.32C190.734 3.32849 189.883 6.55701 188.864 9.61963C185.835 18.7271 181.372 26.2228 178.234 30.2882C175.9 33.3125 170.731 36.6749 164.895 39.7056C159.176 42.6755 153.134 45.1692 149.312 46.5582C121.258 54.8907 102.978 64.5017 91.5134 73.2115C80.217 81.7932 75.3143 89.679 74.532 94.7497C70.7846 108.428 71.6778 121.171 72.6485 126.093C73.4622 135.733 79.0719 147.893 85.5458 159.003C92.0737 170.206 99.6542 180.627 104.67 186.834C129.447 220.866 160.045 240.246 172.421 245.741L172.571 245.807L172.73 245.846C212.383 255.533 232.55 281.137 237.606 292.417L237.701 292.63L237.847 292.812C264.094 325.582 296.263 347.688 309.169 354.695L309.277 354.754L309.391 354.797C329.157 362.319 350.148 362.296 368.283 359.268C382.551 356.886 395.136 352.629 404.097 348.633ZM240.941 0C237.015 4.84995 236.421 9.24197 237.147 11.7295C239.077 19.7343 237.876 27.9619 235.511 35.0739C233.141 42.1992 229.649 48.0603 227.206 51.2265C225.427 53.5316 221.431 56.1447 216.836 58.5311C212.357 60.8567 207.624 62.8109 204.628 63.9003C182.522 70.4672 168.092 78.0484 159.023 84.9381C150.12 91.7016 146.161 97.9774 145.512 102.119C142.557 112.921 143.252 122.985 144.024 126.924C144.679 134.602 149.132 144.228 154.225 152.968C159.372 161.801 165.347 170.016 169.305 174.915C188.848 201.754 212.982 217.046 222.781 221.397L222.93 221.463L223.089 221.502C254.177 229.097 269.956 249.165 273.889 257.938L273.984 258.151L274.13 258.333C294.825 284.172 320.187 301.602 330.384 307.138L330.491 307.197L330.606 307.24C346.247 313.193 362.844 313.17 377.161 310.779C387.727 309.015 397.126 305.949 404.097 302.968V298.976C397.291 302.026 387.592 305.33 376.558 307.172C362.683 309.489 346.835 309.472 332.021 303.866C322.136 298.472 297.374 281.438 277.128 256.225C272.615 246.395 256.009 225.835 224.118 217.989C214.766 213.79 191.282 198.9 172.235 172.725L172.207 172.688L172.178 172.652C168.318 167.878 162.437 159.797 157.385 151.127C152.291 142.384 148.211 133.328 147.661 126.521L147.652 126.413L147.631 126.306C146.948 122.928 146.22 113.311 149.067 102.984L149.098 102.872L149.114 102.756C149.501 100.047 152.514 94.4758 161.235 87.8504C169.87 81.2906 183.885 73.8725 205.722 67.3908L205.774 67.3754L205.825 67.3568C208.94 66.2268 213.852 64.2018 218.521 61.7769C223.099 59.3996 227.776 56.4737 230.101 53.4612C232.787 49.9805 236.478 43.7562 238.982 36.2281C241.485 28.6999 242.85 19.7233 240.691 10.8227L240.679 10.7726L240.664 10.7232C240.312 9.56252 240.417 5.24382 245.905 0H240.941Z" fill="white" fill-opacity="0.1"/>
</svg>
