<svg width="116" height="130" viewBox="0 0 116 130" fill="none" xmlns="http://www.w3.org/2000/svg">
<path d="M94.1572 25.6531C93.9235 25.4585 93.7679 24.6021 93.6507 24.2907C93.1449 23.0451 92.5611 21.8384 91.9381 20.6316C89.9527 16.8169 87.4226 13.3136 84.4257 10.2384C78.5087 4.20487 70.0615 0.662604 61.6534 0.0787105C56.6321 -0.271624 51.5717 0.584753 46.706 1.90824C40.4779 3.62099 34.0942 8.44779 30.007 13.3136C24.7129 19.6196 22.4548 27.4437 22.0655 35.5404C21.7935 41.496 23.1168 47.4517 25.2968 52.9792C30.007 64.8516 37.7922 74.4275 45.8884 84.0419C48.1466 86.6893 50.3649 89.375 52.584 92.0608C53.7127 93.4232 54.8413 94.7856 55.9317 96.148C56.7876 97.1993 57.9945 98.0559 59.396 97.8222C60.2526 97.6667 61.0312 97.1602 61.6534 96.5372C64.1452 94.0852 66.0134 91.0485 68.3098 88.441C70.1006 86.4556 71.8913 84.4312 73.6039 82.3684C77.9639 77.1134 82.1676 71.7416 85.9046 66.0584C89.6025 60.453 92.8722 54.8477 94.4683 48.2692C88.5903 51.3054 83.9974 56.3269 78.3141 59.7134C70.6454 64.3067 61.4587 65.3187 53.246 61.7376C38.9209 55.5095 31.8361 37.6034 39.6603 23.5511C43.4755 16.7391 50.5204 11.9901 58.1891 10.7056C64.5345 9.61557 70.5289 10.7444 76.3287 13.5082C82.7905 16.7391 88.6294 21.1766 94.1572 25.6531Z" fill="white"/>
<path d="M83.258 37.1753L79.0927 30.2464C78.859 29.8182 78.3923 29.5847 77.8858 29.5847H68.1935C67.4149 29.5847 66.792 30.2075 66.792 30.986V44.8048C66.792 45.5833 67.4149 46.2062 68.1935 46.2062H82.0121C82.7906 46.2062 83.4136 45.5833 83.4136 44.8048V37.876C83.4527 37.6424 83.3745 37.4088 83.258 37.1753Z" fill="white"/>
<path d="M72.397 32.3484H77.1462L80.4549 37.9149H72.397V32.3484Z" fill="#FAFAFA"/>
<path d="M69.0955 25.4736L69.0949 25.4855V25.4975V45.7451H48.8471C48.3446 45.7451 47.9456 45.346 47.9456 44.8438V25.4585C47.9456 24.9563 48.3446 24.5572 48.8471 24.5572H68.2325C68.7301 24.5572 69.1207 24.9459 69.0955 25.4736Z" stroke="white"/>
<path d="M76.5234 47.5685C78.0496 47.5685 79.2873 46.3311 79.2873 44.8047C79.2873 43.2783 78.0496 42.041 76.5234 42.041C74.9972 42.041 73.7595 43.2783 73.7595 44.8047C73.7595 46.3311 74.9972 47.5685 76.5234 47.5685Z" fill="#FAFAFA"/>
<path d="M76.5232 48.9698C74.2268 48.9698 72.3586 47.1014 72.3586 44.8048C72.3586 42.5081 74.2268 40.6396 76.5232 40.6396C78.8197 40.6396 80.6886 42.5081 80.6886 44.8048C80.6886 47.1014 78.8197 48.9698 76.5232 48.9698ZM76.5232 43.4423C75.7447 43.4423 75.1218 44.0652 75.1218 44.8437C75.1218 45.6222 75.7447 46.245 76.5232 46.245C77.3018 46.245 77.9247 45.6222 77.9247 44.8437C77.9247 44.0652 77.3018 43.4423 76.5232 43.4423Z" fill="white"/>
<path d="M69.6332 46.2061H48.8861C48.1076 46.2061 47.4846 45.5833 47.4846 44.8048V40.6396H69.6332V46.2061Z" fill="white"/>
<path d="M57.1769 42.041C58.6956 42.041 59.9408 43.2866 59.9408 44.8047C59.9408 46.3229 58.6956 47.5685 57.1769 47.5685C55.6589 47.5685 54.4137 46.3229 54.4137 44.8047C54.3747 43.2866 55.6198 42.041 57.1769 42.041Z" fill="#FAFAFA"/>
<path d="M57.1768 48.9698C54.8803 48.9698 53.0122 47.1014 53.0122 44.8048C53.0122 42.5081 54.8803 40.6396 57.1768 40.6396C59.474 40.6396 61.3422 42.5081 61.3422 44.8048C61.3031 47.1014 59.435 48.9698 57.1768 48.9698ZM57.1768 43.4423C56.3983 43.4423 55.7761 44.0652 55.7761 44.8437C55.7761 45.6222 56.3983 46.245 57.1768 46.245C57.9553 46.245 58.5783 45.6222 58.5783 44.8437C58.5392 44.0652 57.917 43.4423 57.1768 43.4423Z" fill="white"/>
<path d="M14.9676 110.864V113.815H9.20248V129.621H5.76508V113.815H0V110.864H14.9676Z" fill="white"/>
<path d="M24.494 118.416C24.2233 118.326 23.8444 118.235 23.3572 118.145C22.8881 118.037 22.3377 117.983 21.7062 117.983C21.3453 117.983 20.9573 118.019 20.5423 118.091C20.1454 118.163 19.8657 118.226 19.7033 118.28V129.621H16.4283V116.142C17.0598 115.908 17.8447 115.691 18.783 115.493C19.7394 115.276 20.795 115.168 21.9498 115.168C22.1663 115.168 22.4189 115.186 22.7076 115.222C22.9963 115.24 23.285 115.276 23.5737 115.33C23.8624 115.366 24.1421 115.42 24.4128 115.493C24.6835 115.547 24.9 115.601 25.0624 115.655L24.494 118.416Z" fill="white"/>
<path d="M38.956 129.188C38.3244 129.35 37.5034 129.513 36.4929 129.675C35.4825 129.856 34.3728 129.946 33.1638 129.946C32.027 129.946 31.0707 129.784 30.2948 129.459C29.537 129.134 28.9235 128.683 28.4543 128.105C28.0032 127.528 27.6784 126.842 27.4799 126.048C27.2814 125.236 27.1822 124.352 27.1822 123.396V115.466H30.4572V122.882C30.4572 124.397 30.6737 125.48 31.1068 126.13C31.5579 126.779 32.3338 127.104 33.4345 127.104C33.8314 127.104 34.2465 127.086 34.6795 127.05C35.1306 127.014 35.4644 126.969 35.681 126.915V115.466H38.956V129.188Z" fill="white"/>
<path d="M42.3394 122.557C42.3394 121.51 42.5018 120.536 42.8266 119.634C43.1514 118.713 43.6115 117.92 44.207 117.252C44.8205 116.584 45.5603 116.061 46.4264 115.682C47.2925 115.303 48.2669 115.114 49.3496 115.114C50.6848 115.114 51.9479 115.357 53.1388 115.844L52.4351 118.524C52.0562 118.362 51.6231 118.226 51.1359 118.118C50.6668 118.01 50.1615 117.956 49.6202 117.956C48.3391 117.956 47.3647 118.362 46.6971 119.174C46.0295 119.968 45.6956 121.095 45.6956 122.557C45.6956 123.964 46.0114 125.083 46.643 125.913C47.2745 126.725 48.3391 127.131 49.8368 127.131C50.3961 127.131 50.9465 127.077 51.4878 126.969C52.0291 126.86 52.4983 126.725 52.8952 126.563L53.3554 129.269C52.9945 129.45 52.4441 129.612 51.7043 129.756C50.9826 129.901 50.2337 129.973 49.4578 129.973C48.2489 129.973 47.1933 129.793 46.2911 129.432C45.4069 129.053 44.6671 128.538 44.0717 127.889C43.4943 127.221 43.0612 126.436 42.7725 125.534C42.4838 124.614 42.3394 123.621 42.3394 122.557Z" fill="white"/>
<path d="M59.1659 120.987C59.5809 120.554 60.023 120.094 60.4921 119.607C60.9613 119.101 61.4214 118.605 61.8725 118.118C62.3236 117.613 62.7476 117.135 63.1446 116.684C63.5596 116.214 63.9115 115.808 64.2002 115.466H68.0706C67.1684 116.476 66.2121 117.523 65.2016 118.605C64.2092 119.688 63.2078 120.743 62.1973 121.772C62.7386 122.223 63.307 122.773 63.9025 123.423C64.4979 124.055 65.0753 124.731 65.6347 125.453C66.1941 126.175 66.7173 126.896 67.2045 127.618C67.6917 128.34 68.0977 129.008 68.4225 129.621H64.6332C64.3085 129.062 63.9295 128.475 63.4965 127.862C63.0815 127.248 62.6304 126.653 62.1432 126.075C61.656 125.498 61.1598 124.957 60.6545 124.452C60.1493 123.928 59.6531 123.486 59.1659 123.125V129.621H55.8909V109.159L59.1659 108.618V120.987Z" fill="white"/>
<path d="M75.7244 129.892C74.7501 129.874 73.9381 129.765 73.2885 129.567C72.6569 129.369 72.1517 129.089 71.7728 128.728C71.3939 128.349 71.1232 127.889 70.9608 127.348C70.8165 126.788 70.7443 126.157 70.7443 125.453V109.159L74.0193 108.618V124.83C74.0193 125.227 74.0463 125.561 74.1005 125.832C74.1726 126.103 74.2899 126.337 74.4523 126.536C74.6147 126.716 74.8313 126.86 75.1019 126.969C75.3906 127.059 75.7515 127.131 76.1846 127.185L75.7244 129.892Z" fill="white"/>
<path d="M91.6359 122.53C91.6359 123.649 91.4735 124.668 91.1487 125.588C90.8239 126.509 90.3638 127.293 89.7684 127.943C89.1729 128.593 88.4511 129.098 87.6031 129.459C86.773 129.82 85.8528 130 84.8423 130C83.8319 130 82.9116 129.82 82.0816 129.459C81.2516 129.098 80.5388 128.593 79.9434 127.943C79.3479 127.293 78.8788 126.509 78.5359 125.588C78.2111 124.668 78.0487 123.649 78.0487 122.53C78.0487 121.411 78.2111 120.401 78.5359 119.498C78.8788 118.578 79.3479 117.793 79.9434 117.144C80.5569 116.494 81.2786 115.998 82.1087 115.655C82.9387 115.294 83.8499 115.114 84.8423 115.114C85.8348 115.114 86.746 115.294 87.576 115.655C88.4241 115.998 89.1458 116.494 89.7413 117.144C90.3368 117.793 90.7969 118.578 91.1217 119.498C91.4645 120.401 91.6359 121.411 91.6359 122.53ZM88.2797 122.53C88.2797 121.122 87.973 120.013 87.3595 119.201C86.764 118.371 85.925 117.956 84.8423 117.956C83.7597 117.956 82.9116 118.371 82.2981 119.201C81.7027 120.013 81.4049 121.122 81.4049 122.53C81.4049 123.955 81.7027 125.083 82.2981 125.913C82.9116 126.743 83.7597 127.158 84.8423 127.158C85.925 127.158 86.764 126.743 87.3595 125.913C87.973 125.083 88.2797 123.955 88.2797 122.53Z" fill="white"/>
<path d="M94.8475 111.73L98.1225 111.189V115.466H103.157V118.199H98.1225V123.964C98.1225 125.101 98.3029 125.913 98.6638 126.4C99.0247 126.887 99.6382 127.131 100.504 127.131C101.1 127.131 101.623 127.068 102.074 126.942C102.543 126.815 102.913 126.698 103.184 126.59L103.725 129.188C103.346 129.35 102.85 129.513 102.237 129.675C101.623 129.856 100.901 129.946 100.071 129.946C99.0608 129.946 98.2127 129.811 97.527 129.54C96.8594 129.269 96.3271 128.881 95.9301 128.376C95.5332 127.853 95.2535 127.23 95.0911 126.509C94.9287 125.769 94.8475 124.93 94.8475 123.991V111.73Z" fill="white"/>
<path d="M109.868 127.266C110.734 127.266 111.366 127.167 111.763 126.969C112.16 126.752 112.358 126.391 112.358 125.886C112.358 125.417 112.142 125.029 111.709 124.722C111.294 124.415 110.599 124.082 109.625 123.721C109.029 123.504 108.479 123.279 107.974 123.044C107.487 122.791 107.062 122.503 106.702 122.178C106.341 121.853 106.052 121.465 105.835 121.014C105.637 120.545 105.538 119.977 105.538 119.309C105.538 118.01 106.016 116.99 106.972 116.25C107.929 115.493 109.228 115.114 110.87 115.114C111.7 115.114 112.494 115.195 113.252 115.357C114.009 115.502 114.578 115.646 114.957 115.79L114.361 118.443C114 118.28 113.54 118.136 112.981 118.01C112.422 117.865 111.772 117.793 111.032 117.793C110.365 117.793 109.823 117.911 109.408 118.145C108.993 118.362 108.786 118.704 108.786 119.174C108.786 119.408 108.822 119.616 108.894 119.796C108.984 119.977 109.129 120.148 109.327 120.31C109.525 120.455 109.787 120.608 110.112 120.771C110.437 120.915 110.834 121.068 111.303 121.231C112.079 121.519 112.737 121.808 113.279 122.097C113.82 122.367 114.262 122.683 114.605 123.044C114.966 123.387 115.227 123.784 115.39 124.235C115.552 124.686 115.633 125.227 115.633 125.859C115.633 127.212 115.128 128.241 114.118 128.944C113.125 129.63 111.7 129.973 109.841 129.973C108.596 129.973 107.595 129.865 106.837 129.648C106.079 129.45 105.547 129.287 105.24 129.161L105.808 126.427C106.296 126.626 106.873 126.815 107.541 126.996C108.226 127.176 109.002 127.266 109.868 127.266Z" fill="white"/>
</svg>
