<svg width="154" height="32" viewBox="0 0 154 32" fill="none" xmlns="http://www.w3.org/2000/svg">
<g id="Union">
<path d="M122.552 8.33246C122.496 8.2881 122.453 8.13791 122.419 8.0173C122.404 7.96603 122.391 7.92011 122.379 7.88993C122.206 7.48534 122.006 7.09339 121.793 6.70141C121.114 5.46234 120.248 4.32442 119.222 3.32555C117.197 1.36579 114.307 0.215222 111.429 0.0255662C109.711 -0.0882268 107.979 0.189935 106.314 0.619819C104.183 1.17614 101.998 2.74395 100.599 4.32442C98.7877 6.37268 98.0149 8.91406 97.8817 11.544C97.7886 13.4784 98.2415 15.4129 98.9875 17.2083C100.599 21.0646 103.264 24.175 106.034 27.2979C106.799 28.1489 107.551 29.0122 108.302 29.8756L108.325 29.9025C108.712 30.345 109.098 30.7875 109.471 31.2301C109.764 31.5715 110.177 31.8498 110.657 31.7739C110.95 31.7233 111.216 31.5588 111.429 31.3565C111.929 30.8897 112.355 30.3578 112.781 29.8269C113.082 29.4518 113.382 29.0773 113.707 28.7267C114.32 28.0819 114.933 27.4243 115.519 26.7543C117.011 25.0474 118.449 23.3026 119.728 21.4566C120.994 19.6359 122.113 17.8152 122.659 15.6784C121.561 16.2167 120.594 16.9472 119.626 17.6785C118.82 18.287 118.014 18.8961 117.131 19.3957C114.506 20.8876 111.363 21.2163 108.552 20.0531C103.65 18.0302 101.225 12.2141 103.903 7.6497C105.208 5.43705 107.619 3.89454 110.244 3.4773C112.415 3.12325 114.466 3.48992 116.451 4.38764C118.663 5.43705 120.661 6.87842 122.552 8.33246Z" fill="white"/>
<path d="M74.4058 14.7642C74.9276 14.2475 75.4835 13.698 76.0737 13.1166C76.6637 12.5135 77.2423 11.9213 77.8096 11.3397C78.3769 10.7365 78.9102 10.1659 79.4094 9.62743C79.9311 9.0675 80.3737 8.58274 80.7368 8.17366H85.6041C84.4695 9.37968 83.267 10.6289 81.9961 11.9213C80.7481 13.2135 79.4888 14.4735 78.2179 15.7012C78.8986 16.2397 79.6135 16.8965 80.3624 17.672C81.1112 18.4257 81.8375 19.2334 82.5408 20.095C83.2441 20.9564 83.9022 21.818 84.515 22.6796C85.1276 23.541 85.6383 24.3379 86.0467 25.0702H81.2815C80.8729 24.4026 80.3963 23.7026 79.8519 22.9703C79.3299 22.2381 78.7626 21.5273 78.15 20.838C77.5372 20.1487 76.9131 19.5026 76.2779 18.8995C75.6425 18.2749 75.0183 17.7474 74.4058 17.3166V25.0702H70.2871V0.646093L74.4058 5.32509e-10V14.7642Z" fill="white"/>
<path d="M18.8229 6.20305V2.68164H0V6.20305H7.25006V25.0703H11.5728V6.20305H18.8229Z" fill="white"/>
<path d="M29.3738 11.372C29.9866 11.4799 30.4631 11.5875 30.8033 11.6952L31.5182 8.39977C31.314 8.33533 31.0417 8.27065 30.7012 8.20597C30.361 8.1198 30.0092 8.05512 29.6461 8.01216C29.283 7.94748 28.9199 7.90452 28.557 7.88304C28.1939 7.83984 27.8761 7.81836 27.604 7.81836C26.1515 7.81836 24.8241 7.94748 23.6214 8.20597C22.4415 8.44297 21.4544 8.70146 20.6602 8.98142V25.0703H24.7787V11.5336C24.9829 11.4691 25.3347 11.3937 25.8339 11.3075C26.3557 11.2214 26.8438 11.1782 27.2974 11.1782C28.0918 11.1782 28.7838 11.2429 29.3738 11.372Z" fill="white"/>
<path d="M48.9901 24.5531C48.196 24.7472 47.1635 24.941 45.8926 25.1348C44.622 25.3501 43.2264 25.4577 41.7061 25.4577C40.2765 25.4577 39.0738 25.2639 38.0981 24.8763C37.1451 24.4887 36.3736 23.9502 35.7834 23.2609C35.2161 22.5716 34.8077 21.7532 34.558 20.8057C34.3086 19.8364 34.1836 18.781 34.1836 17.6394V8.17358H38.3023V17.0256C38.3023 18.835 38.5746 20.1271 39.1193 20.9026C39.6866 21.6778 40.6622 22.0657 42.0465 22.0657C42.5457 22.0657 43.0675 22.0439 43.6121 22.001C44.1794 21.9578 44.5994 21.9041 44.8717 21.8394V8.17358H48.9901V24.5531Z" fill="white"/>
<path d="M53.8579 13.1485C53.4493 14.2254 53.2451 15.3885 53.2451 16.6377C53.2451 17.9084 53.4267 19.0932 53.7898 20.1916C54.1529 21.2685 54.6976 22.2053 55.4235 23.0022C56.1724 23.7777 57.1028 24.3916 58.2147 24.8439C59.3493 25.2744 60.6768 25.4899 62.1971 25.4899C63.1728 25.4899 64.1145 25.4038 65.0223 25.2315C65.9527 25.0591 66.6447 24.8653 67.0986 24.6498L66.52 21.4191C66.0206 21.6131 65.4307 21.7745 64.75 21.9039C64.0693 22.033 63.377 22.0977 62.6737 22.0977C60.7902 22.0977 59.4514 21.6132 58.6571 20.6439C57.863 19.6532 57.4659 18.3178 57.4659 16.6377C57.4659 14.8933 57.8856 13.5471 58.7252 12.5994C59.5648 11.6301 60.7902 11.1456 62.4013 11.1456C63.082 11.1456 63.7175 11.2103 64.3074 11.3394C64.9202 11.4688 65.4649 11.6301 65.9414 11.8239L66.8263 8.62566C65.3286 8.044 63.7401 7.7533 62.0611 7.7533C60.6994 7.7533 59.4741 7.97956 58.385 8.43185C57.2957 8.88414 56.3652 9.50875 55.5938 10.3057C54.8449 11.1024 54.2663 12.0502 53.8579 13.1485Z" fill="white"/>
<path d="M92.1664 25.0055C92.9834 25.2425 94.0043 25.3719 95.2297 25.3933L95.8085 22.1626C95.2639 22.0979 94.81 22.0118 94.4469 21.9041C94.1067 21.7748 93.8343 21.6027 93.6299 21.3872C93.4257 21.1502 93.2784 20.8702 93.1876 20.5473C93.1194 20.2241 93.0855 19.8258 93.0855 19.3518V5.32509e-10L88.9668 0.646092V20.095C88.9668 20.9349 89.0576 21.6886 89.2391 22.3564C89.4433 23.0025 89.7838 23.5517 90.2603 24.004C90.7368 24.4348 91.3723 24.7687 92.1664 25.0055Z" fill="white"/>
<path d="M126.914 3.71506L131.033 3.06897V8.17351H137.364V11.4364H131.033V18.3179C131.033 19.6748 131.26 20.644 131.713 21.2254C132.167 21.8071 132.939 22.0978 134.028 22.0978C134.777 22.0978 135.435 22.0224 136.002 21.8718C136.592 21.7209 137.057 21.5808 137.398 21.4517L138.078 24.553C137.602 24.7471 136.978 24.9409 136.206 25.1347C135.435 25.35 134.527 25.4576 133.483 25.4576C132.213 25.4576 131.146 25.2963 130.284 24.9731C129.444 24.6499 128.775 24.1869 128.275 23.584C127.776 22.9594 127.425 22.2162 127.22 21.3548C127.016 20.4717 126.914 19.4702 126.914 18.3501V3.71506Z" fill="white"/>
<path d="M148.187 21.9039C147.687 22.1409 146.893 22.2592 145.804 22.2592C144.715 22.2592 143.739 22.1516 142.877 21.9361C142.037 21.7208 141.311 21.4945 140.698 21.2578L139.983 24.5207C140.369 24.6715 141.039 24.8653 141.992 25.1023C142.945 25.3606 144.204 25.4899 145.77 25.4899C148.107 25.4899 149.9 25.0806 151.148 24.2622C152.419 23.4223 153.054 22.1946 153.054 20.5792C153.054 19.8255 152.952 19.1791 152.748 18.6407C152.543 18.1022 152.214 17.6285 151.761 17.2194C151.329 16.7886 150.773 16.4117 150.093 16.0885C149.412 15.7439 148.584 15.3992 147.608 15.0548C147.018 14.8608 146.519 14.6777 146.11 14.5054C145.702 14.3116 145.373 14.1285 145.123 13.9562C144.874 13.7624 144.692 13.5579 144.579 13.3423C144.488 13.1271 144.442 12.8793 144.442 12.5994C144.442 12.0394 144.703 11.6301 145.225 11.3716C145.747 11.0916 146.428 10.9518 147.267 10.9518C148.198 10.9518 149.015 11.0379 149.718 11.2103C150.422 11.3609 151 11.5332 151.454 11.727L152.203 8.56097C151.726 8.38865 151.012 8.21632 150.059 8.044C149.106 7.8502 148.107 7.7533 147.063 7.7533C144.998 7.7533 143.365 8.20558 142.162 9.11016C140.959 9.99326 140.358 11.2103 140.358 12.7609C140.358 13.5579 140.483 14.2362 140.732 14.7964C141.005 15.3348 141.368 15.7978 141.822 16.1854C142.275 16.573 142.809 16.9177 143.421 17.2194C144.057 17.4993 144.749 17.7686 145.498 18.0271C146.723 18.4576 147.597 18.8562 148.118 19.2223C148.663 19.5885 148.935 20.0515 148.935 20.6114C148.935 21.2146 148.686 21.6454 148.187 21.9039Z" fill="white"/>
<path fill-rule="evenodd" clip-rule="evenodd" d="M111.228 15.0212H114.147V15.0084L115.175 15.0082C115.372 15.531 115.9 15.9061 116.517 15.9061C117.135 15.9061 117.663 15.531 117.86 15.0082H118.396C118.662 15.0082 118.876 14.8059 118.876 14.553V12.3025C118.889 12.2266 118.862 12.1508 118.822 12.0749L117.397 9.82432C117.317 9.68524 117.157 9.60938 116.984 9.60938H114.147V8.28214C114.161 8.01663 113.947 7.81433 113.681 7.81433H107.047C106.781 7.81433 106.567 8.01663 106.567 8.2695V14.5661C106.567 14.8189 106.781 15.0212 107.047 15.0212H108.561C108.762 15.5372 109.285 15.9061 109.898 15.9061C110.5 15.9061 111.022 15.5372 111.228 15.0212ZM107.567 8.81433H113.147V13.2003H107.567V8.81433Z" fill="white"/>
</g>
</svg>
