<svg width="154" height="33" viewBox="0 0 154 33" fill="none" xmlns="http://www.w3.org/2000/svg">
<path d="M121.45 8.59054C121.371 8.52537 121.319 8.23859 121.28 8.13431C121.111 7.71718 120.915 7.31309 120.707 6.90898C120.042 5.63153 119.194 4.45836 118.191 3.42856C116.209 1.4081 113.381 0.221888 110.565 0.026358C108.884 -0.0909595 107.189 0.195818 105.56 0.639017C103.474 1.21257 101.336 2.82894 99.9676 4.45836C98.1947 6.57006 97.4385 9.19016 97.3082 11.9015C97.2171 13.8959 97.6602 15.8903 98.3903 17.7413C99.9676 21.7171 102.575 24.9237 105.286 28.1434C106.042 29.0299 106.785 29.9293 107.528 30.8287C107.906 31.2849 108.284 31.7411 108.649 32.1974C108.936 32.5494 109.34 32.8363 109.809 32.758C110.096 32.7059 110.357 32.5363 110.565 32.3277C111.4 31.5066 112.025 30.4897 112.794 29.6165C113.394 28.9516 113.993 28.2737 114.567 27.5829C116.027 25.8232 117.435 24.0243 118.686 22.1212C119.925 20.2441 121.019 18.367 121.554 16.164C119.586 17.1808 118.047 18.8624 116.144 19.9964C113.576 21.5346 110.5 21.8735 107.75 20.6742C102.953 18.5886 100.58 12.5924 103.2 7.88664C104.478 5.60546 106.837 4.01516 109.405 3.585C111.53 3.21999 113.537 3.59801 115.479 4.52354C117.643 5.60546 119.599 7.09147 121.45 8.59054Z" fill="#1D4ED8"/>
<path d="M117.8 12.4489L116.405 10.1286C116.327 9.98521 116.17 9.907 116.001 9.907H112.755C112.494 9.907 112.286 10.1156 112.286 10.3763V15.0038C112.286 15.2645 112.494 15.4731 112.755 15.4731H117.383C117.643 15.4731 117.852 15.2645 117.852 15.0038V12.6835C117.865 12.6053 117.839 12.5271 117.8 12.4489Z" fill="#1D4ED8"/>
<path d="M114.163 10.8327H115.753L116.861 12.6967H114.163V10.8327Z" fill="white"/>
<path d="M106.307 8.55612H112.725V14.9862H106.307V8.55612Z" stroke="#1D4ED8"/>
<path d="M115.545 15.9292C116.056 15.9292 116.47 15.5149 116.47 15.0037C116.47 14.4926 116.056 14.0782 115.545 14.0782C115.034 14.0782 114.619 14.4926 114.619 15.0037C114.619 15.5149 115.034 15.9292 115.545 15.9292Z" fill="white"/>
<path d="M115.545 16.3988C114.776 16.3988 114.15 15.7731 114.15 15.004C114.15 14.2349 114.776 13.6092 115.545 13.6092C116.314 13.6092 116.939 14.2349 116.939 15.004C116.939 15.7731 116.314 16.3988 115.545 16.3988ZM115.545 14.5478C115.284 14.5478 115.075 14.7563 115.075 15.0171C115.075 15.2778 115.284 15.4863 115.545 15.4863C115.805 15.4863 116.014 15.2778 116.014 15.0171C116.014 14.7563 115.805 14.5478 115.545 14.5478Z" fill="#1D4ED8"/>
<path d="M113.237 15.4733H106.29C106.029 15.4733 105.82 15.2647 105.82 15.004V13.6092H113.237V15.4733Z" fill="#1D4ED8"/>
<path d="M109.066 14.0782C109.575 14.0782 109.992 14.4953 109.992 15.0037C109.992 15.5121 109.575 15.9292 109.066 15.9292C108.558 15.9292 108.141 15.5121 108.141 15.0037C108.128 14.4953 108.545 14.0782 109.066 14.0782Z" fill="white"/>
<path d="M109.066 16.3988C108.297 16.3988 107.671 15.7731 107.671 15.004C107.671 14.2349 108.297 13.6092 109.066 13.6092C109.835 13.6092 110.461 14.2349 110.461 15.004C110.448 15.7731 109.822 16.3988 109.066 16.3988ZM109.066 14.5478C108.805 14.5478 108.597 14.7563 108.597 15.0171C108.597 15.2778 108.805 15.4863 109.066 15.4863C109.327 15.4863 109.535 15.2778 109.535 15.0171C109.522 14.7563 109.314 14.5478 109.066 14.5478Z" fill="#1D4ED8"/>
<path d="M74.4058 15.7656C74.9276 15.2489 75.4835 14.6995 76.0737 14.1181C76.6637 13.5149 77.2423 12.9228 77.8096 12.3411C78.3769 11.738 78.9102 11.1673 79.4094 10.6289C79.9311 10.069 80.3737 9.58421 80.7368 9.17512H85.6041C84.4695 10.3811 83.267 11.6304 81.9961 12.9228C80.7481 14.215 79.4888 15.4749 78.2179 16.7027C78.8986 17.2411 79.6135 17.898 80.3624 18.6734C81.1112 19.4272 81.8375 20.2348 82.5408 21.0965C83.2441 21.9578 83.9022 22.8195 84.515 23.6811C85.1276 24.5424 85.6383 25.3394 86.0467 26.0716H81.2815C80.8729 25.4041 80.3963 24.704 79.8519 23.9718C79.3299 23.2395 78.7626 22.5287 78.15 21.8394C77.5372 21.1502 76.9131 20.5041 76.2779 19.9009C75.6425 19.2763 75.0183 18.7488 74.4058 18.318V26.0716H70.2871V1.64756L74.4058 1.00146V15.7656Z" fill="#1D4ED8"/>
<path d="M18.8229 7.20451V3.68311H0V7.20451H7.25006V26.0718H11.5728V7.20451H18.8229Z" fill="#1D4ED8"/>
<path d="M29.3738 12.3735C29.9866 12.4813 30.4631 12.589 30.8033 12.6966L31.5182 9.40123C31.314 9.3368 31.0417 9.27211 30.7012 9.20743C30.361 9.12127 30.0092 9.05658 29.6461 9.01363C29.283 8.94894 28.9199 8.90599 28.557 8.88451C28.1939 8.8413 27.8761 8.81982 27.604 8.81982C26.1515 8.81982 24.8241 8.94894 23.6214 9.20743C22.4415 9.44444 21.4544 9.70292 20.6602 9.98289V26.0717H24.7787V12.535C24.9829 12.4706 25.3347 12.3952 25.8339 12.309C26.3557 12.2228 26.8438 12.1796 27.2974 12.1796C28.0918 12.1796 28.7838 12.2443 29.3738 12.3735Z" fill="#1D4ED8"/>
<path d="M48.9901 25.5546C48.196 25.7486 47.1635 25.9424 45.8926 26.1362C44.622 26.3515 43.2264 26.4592 41.7061 26.4592C40.2765 26.4592 39.0738 26.2654 38.0981 25.8778C37.1451 25.4901 36.3736 24.9517 35.7834 24.2624C35.2161 23.5731 34.8077 22.7547 34.558 21.8072C34.3086 20.8379 34.1836 19.7825 34.1836 18.6409V9.17505H38.3023V18.027C38.3023 19.8364 38.5746 21.1286 39.1193 21.9041C39.6866 22.6793 40.6622 23.0671 42.0465 23.0671C42.5457 23.0671 43.0675 23.0454 43.6121 23.0024C44.1794 22.9592 44.5994 22.9055 44.8717 22.8409V9.17505H48.9901V25.5546Z" fill="#1D4ED8"/>
<path d="M53.8579 14.15C53.4493 15.2269 53.2451 16.39 53.2451 17.6392C53.2451 18.9099 53.4267 20.0947 53.7898 21.1931C54.1529 22.27 54.6976 23.2068 55.4235 24.0037C56.1724 24.7792 57.1028 25.393 58.2147 25.8453C59.3493 26.2759 60.6768 26.4914 62.1971 26.4914C63.1728 26.4914 64.1145 26.4052 65.0223 26.2329C65.9527 26.0606 66.6447 25.8668 67.0986 25.6513L66.52 22.4206C66.0206 22.6146 65.4307 22.776 64.75 22.9053C64.0693 23.0344 63.377 23.0991 62.6737 23.0991C60.7902 23.0991 59.4514 22.6146 58.6571 21.6454C57.863 20.6546 57.4659 19.3192 57.4659 17.6392C57.4659 15.8947 57.8856 14.5486 58.7252 13.6008C59.5648 12.6316 60.7902 12.147 62.4013 12.147C63.082 12.147 63.7175 12.2117 64.3074 12.3409C64.9202 12.4702 65.4649 12.6316 65.9414 12.8254L66.8263 9.62712C65.3286 9.04547 63.7401 8.75476 62.0611 8.75476C60.6994 8.75476 59.4741 8.98103 58.385 9.43332C57.2957 9.8856 56.3652 10.5102 55.5938 11.3072C54.8449 12.1038 54.2663 13.0516 53.8579 14.15Z" fill="#1D4ED8"/>
<path d="M92.1664 26.0069C92.9834 26.2439 94.0043 26.3733 95.2297 26.3948L95.8085 23.1641C95.2639 23.0994 94.81 23.0133 94.4469 22.9056C94.1067 22.7762 93.8343 22.6042 93.6299 22.3886C93.4257 22.1516 93.2784 21.8717 93.1876 21.5487C93.1194 21.2256 93.0855 20.8272 93.0855 20.3532V1.00146L88.9668 1.64756V21.0965C88.9668 21.9364 89.0576 22.6901 89.2391 23.3579C89.4433 24.004 89.7838 24.5532 90.2603 25.0055C90.7368 25.4363 91.3723 25.7702 92.1664 26.0069Z" fill="#1D4ED8"/>
<path d="M126.914 4.71653L131.033 4.07043V9.17497H137.364V12.4379H131.033V19.3194C131.033 20.6762 131.26 21.6455 131.713 22.2269C132.167 22.8086 132.939 23.0993 134.028 23.0993C134.777 23.0993 135.435 23.0238 136.002 22.8732C136.592 22.7224 137.057 22.5823 137.398 22.4532L138.078 25.5545C137.602 25.7486 136.978 25.9424 136.206 26.1362C135.435 26.3514 134.527 26.4591 133.483 26.4591C132.213 26.4591 131.146 26.2977 130.284 25.9746C129.444 25.6514 128.775 25.1884 128.275 24.5855C127.776 23.9609 127.425 23.2176 127.22 22.3563C127.016 21.4732 126.914 20.4717 126.914 19.3516V4.71653Z" fill="#1D4ED8"/>
<path d="M148.187 22.9053C147.687 23.1423 146.893 23.2607 145.804 23.2607C144.715 23.2607 143.739 23.1531 142.877 22.9375C142.037 22.7223 141.311 22.496 140.698 22.2592L139.983 25.5222C140.369 25.673 141.039 25.8668 141.992 26.1038C142.945 26.362 144.204 26.4914 145.77 26.4914C148.107 26.4914 149.9 26.0821 151.148 25.2637C152.419 24.4238 153.054 23.196 153.054 21.5807C153.054 20.8269 152.952 20.1806 152.748 19.6422C152.543 19.1037 152.214 18.6299 151.761 18.2208C151.329 17.79 150.773 17.4132 150.093 17.09C149.412 16.7454 148.584 16.4007 147.608 16.0563C147.018 15.8623 146.519 15.6792 146.11 15.5069C145.702 15.3131 145.373 15.13 145.123 14.9577C144.874 14.7639 144.692 14.5593 144.579 14.3438C144.488 14.1285 144.442 13.8808 144.442 13.6008C144.442 13.0409 144.703 12.6316 145.225 12.3731C145.747 12.0931 146.428 11.9532 147.267 11.9532C148.198 11.9532 149.015 12.0394 149.718 12.2117C150.422 12.3623 151 12.5347 151.454 12.7285L152.203 9.56243C151.726 9.39011 151.012 9.21779 150.059 9.04546C149.106 8.85166 148.107 8.75476 147.063 8.75476C144.998 8.75476 143.365 9.20705 142.162 10.1116C140.959 10.9947 140.358 12.2117 140.358 13.7624C140.358 14.5593 140.483 15.2376 140.732 15.7978C141.005 16.3363 141.368 16.7993 141.822 17.1869C142.275 17.5745 142.809 17.9192 143.421 18.2208C144.057 18.5008 144.749 18.77 145.498 19.0285C146.723 19.4591 147.597 19.8577 148.118 20.2238C148.663 20.5899 148.935 21.053 148.935 21.6129C148.935 22.216 148.686 22.6468 148.187 22.9053Z" fill="#1D4ED8"/>
</svg>
