<svg width="28" height="28" viewBox="0 0 28 28" fill="none" xmlns="http://www.w3.org/2000/svg">
<rect x="0.25" y="0.25" width="27.5" height="27.5" rx="13.75" fill="#E2EAFF" stroke="#5369C5" stroke-width="0.5"/>
<path d="M21.0754 16.2343H20.703V13.7207C20.703 13.4228 20.5913 13.1435 20.3679 12.9387L18.0591 10.6112C17.8542 10.4064 17.5749 10.2761 17.277 10.2761H16.2343V9.15889C16.2343 8.54444 15.7316 8.04171 15.1172 8.04171H7.66931C7.05487 8.04171 6.55214 8.54444 6.55214 9.15889V16.6067C6.55214 17.2212 7.05487 17.7239 7.66931 17.7239H8.0417C8.0417 18.9528 9.04716 19.9583 10.2761 19.9583C11.505 19.9583 12.5104 18.9528 12.5104 17.7239H15.4895C15.4895 18.9528 16.495 19.9583 17.7239 19.9583C18.9528 19.9583 19.9583 18.9528 19.9583 17.7239H21.0754C21.2802 17.7239 21.4478 17.5563 21.4478 17.3515V16.6067C21.4478 16.4019 21.2802 16.2343 21.0754 16.2343ZM10.2761 18.8411C9.66161 18.8411 9.15888 18.3384 9.15888 17.7239C9.15888 17.1095 9.66161 16.6067 10.2761 16.6067C10.8905 16.6067 11.3932 17.1095 11.3932 17.7239C11.3932 18.3384 10.8905 18.8411 10.2761 18.8411ZM17.7239 18.8411C17.1095 18.8411 16.6067 18.3384 16.6067 17.7239C16.6067 17.1095 17.1095 16.6067 17.7239 16.6067C18.3384 16.6067 18.8411 17.1095 18.8411 17.7239C18.8411 18.3384 18.3384 18.8411 17.7239 18.8411ZM19.5859 14H16.2343V11.3932H17.2584L19.5859 13.7207V14Z" fill="#1D4ED8"/>
</svg>
