<svg width="73" height="60" viewBox="0 0 73 60" fill="none" xmlns="http://www.w3.org/2000/svg">
<rect width="73" height="60" rx="16" fill="#FFDD9A"/>
<path d="M34.3333 44.6665C34.3333 45.0201 34.1929 45.3593 33.9428 45.6093C33.6928 45.8594 33.3536 45.9998 33 45.9998H22.3333C21.9797 45.9998 21.6406 45.8594 21.3905 45.6093C21.1405 45.3593 21 45.0201 21 44.6665C21 44.3129 21.1405 43.9737 21.3905 43.7237C21.6406 43.4736 21.9797 43.3332 22.3333 43.3332H33C33.3536 43.3332 33.6928 43.4736 33.9428 43.7237C34.1929 43.9737 34.3333 44.3129 34.3333 44.6665ZM22.3333 40.6665H30.3333C30.687 40.6665 31.0261 40.526 31.2761 40.276C31.5262 40.0259 31.6667 39.6868 31.6667 39.3332C31.6667 38.9795 31.5262 38.6404 31.2761 38.3904C31.0261 38.1403 30.687 37.9998 30.3333 37.9998H22.3333C21.9797 37.9998 21.6406 38.1403 21.3905 38.3904C21.1405 38.6404 21 38.9795 21 39.3332C21 39.6868 21.1405 40.0259 21.3905 40.276C21.6406 40.526 21.9797 40.6665 22.3333 40.6665ZM22.3333 35.3332H27.6667C28.0203 35.3332 28.3594 35.1927 28.6095 34.9426C28.8595 34.6926 29 34.3535 29 33.9998C29 33.6462 28.8595 33.3071 28.6095 33.057C28.3594 32.807 28.0203 32.6665 27.6667 32.6665H22.3333C21.9797 32.6665 21.6406 32.807 21.3905 33.057C21.1405 33.3071 21 33.6462 21 33.9998C21 34.3535 21.1405 34.6926 21.3905 34.9426C21.6406 35.1927 21.9797 35.3332 22.3333 35.3332Z" fill="#FBB225"/>
<path d="M37 14C32.7565 14 28.6869 15.6857 25.6863 18.6863C22.6857 21.6869 21 25.7565 21 30C21 30.0813 21.0107 30.16 21.012 30.2413C21.4355 30.0861 21.8823 30.0045 22.3333 30H27.6667C28.3212 29.9978 28.9662 30.1568 29.5447 30.4629C30.1233 30.769 30.6175 31.2129 30.9839 31.7553C31.3502 32.2977 31.5774 32.9219 31.6453 33.5729C31.7132 34.2239 31.6198 34.8817 31.3733 35.488C31.9193 35.6313 32.4283 35.8894 32.8665 36.2451C33.3047 36.6008 33.662 37.046 33.9144 37.5508C34.1668 38.0556 34.3086 38.6085 34.3302 39.1725C34.3519 39.7365 34.2529 40.2986 34.04 40.8213C34.5732 40.9573 35.072 41.2038 35.5039 41.5447C35.9359 41.8856 36.2916 42.3134 36.5478 42.8004C36.8041 43.2873 36.9552 43.8227 36.9916 44.3718C37.0279 44.9209 36.9485 45.4715 36.7587 45.988C36.84 45.988 36.9187 46 37 46C41.2435 46 45.3131 44.3143 48.3137 41.3137C51.3143 38.3131 53 34.2435 53 30C53 25.7565 51.3143 21.6869 48.3137 18.6863C45.3131 15.6857 41.2435 14 37 14ZM41.9427 34.9427C41.6926 35.1926 41.3536 35.333 41 35.333C40.6464 35.333 40.3074 35.1926 40.0573 34.9427L36.0573 30.9427C35.8073 30.6927 35.6667 30.3536 35.6667 30V23.3333C35.6667 22.9797 35.8071 22.6406 36.0572 22.3905C36.3072 22.1405 36.6464 22 37 22C37.3536 22 37.6928 22.1405 37.9428 22.3905C38.1929 22.6406 38.3333 22.9797 38.3333 23.3333V29.448L41.9427 33.0573C42.1926 33.3074 42.333 33.6464 42.333 34C42.333 34.3536 42.1926 34.6926 41.9427 34.9427Z" fill="#FBB225"/>
</svg>
