<svg width="173" height="173" viewBox="0 0 173 173" fill="none" xmlns="http://www.w3.org/2000/svg">
<circle cx="86.5" cy="86.5" r="86.5" fill="white"/>
<path d="M147.665 25.3354C131.327 8.99769 109.605 0 86.5 0C63.395 0 41.6731 8.99769 25.335 25.3354C8.99769 41.6731 0 63.395 0 86.5C0 109.605 8.99769 131.327 25.335 147.665C41.6731 164.002 63.395 173 86.5 173C109.605 173 131.327 164.002 147.665 147.665C164.002 131.327 173 109.605 173 86.5C173 63.395 164.002 41.6731 147.665 25.3354ZM86.5 162.863C63.9056 162.863 43.5754 152.996 29.5816 137.349C38.257 114.35 60.4649 97.9883 86.5 97.9883C69.7048 97.9883 56.0898 84.3733 56.0898 67.5781C56.0898 50.7829 69.7048 37.168 86.5 37.168C103.295 37.168 116.91 50.7829 116.91 67.5781C116.91 84.3733 103.295 97.9883 86.5 97.9883C112.535 97.9883 134.743 114.35 143.418 137.349C129.425 152.996 109.094 162.863 86.5 162.863Z" fill="#AFB3BE"/>
</svg>
