<svg width="26" height="32" viewBox="0 0 26 32" fill="none" xmlns="http://www.w3.org/2000/svg">
<path d="M25.3258 8.33246C25.2697 8.2881 25.2267 8.13791 25.1923 8.0173C25.1776 7.96603 25.1645 7.92011 25.1525 7.88993C24.9794 7.48534 24.7796 7.09339 24.5664 6.70141C23.887 5.46234 23.0211 4.32442 21.9956 3.32555C19.9707 1.36579 17.08 0.215222 14.2026 0.0255661C12.4843 -0.0882268 10.7525 0.189935 9.08742 0.619819C6.95607 1.17614 4.7715 2.74395 3.3728 4.32442C1.5611 6.37268 0.788343 8.91406 0.655133 11.544C0.56204 13.4784 1.0149 15.4129 1.76092 17.2083C3.3728 21.0646 6.03698 24.175 8.80763 27.2979C9.57248 28.1489 10.324 29.0122 11.0756 29.8756L11.0989 29.9025C11.4852 30.345 11.8714 30.7875 12.2446 31.2301C12.5375 31.5715 12.9505 31.8498 13.4301 31.7739C13.7232 31.7233 13.9897 31.5588 14.2026 31.3565C14.7023 30.8897 15.1288 30.3578 15.5544 29.8269C15.855 29.4518 16.1552 29.0773 16.4805 28.7267C17.0933 28.0819 17.7062 27.4243 18.2922 26.7543C19.7843 25.0474 21.2228 23.3026 22.5017 21.4566C23.7672 19.6359 24.8861 17.8152 25.4323 15.6784C24.3343 16.2167 23.3674 16.9472 22.3993 17.6785C21.5937 18.287 20.7874 18.8961 19.9041 19.3957C17.2798 20.8876 14.136 21.2163 11.3255 20.0531C6.42324 18.0302 3.99873 12.2141 6.67628 7.6497C7.98188 5.43705 10.3928 3.89454 13.0171 3.4773C15.1886 3.12325 17.2399 3.48992 19.2247 4.38764C21.436 5.43705 23.4341 6.87842 25.3258 8.33246Z" fill="white"/>
<path fill-rule="evenodd" clip-rule="evenodd" d="M14.0019 15.0212H16.9206V15.0084L17.9487 15.0082C18.1459 15.531 18.6731 15.9061 19.2909 15.9061C19.9087 15.9061 20.436 15.531 20.6334 15.0082H21.1695C21.4359 15.0082 21.6491 14.8059 21.6491 14.553V12.3025C21.6624 12.2266 21.6357 12.1508 21.5958 12.0749L20.1704 9.82432C20.0904 9.68524 19.9307 9.60938 19.7574 9.60938H16.9206V8.28214C16.934 8.01663 16.7208 7.81433 16.4544 7.81433H9.82042C9.55401 7.81433 9.34082 8.01663 9.34082 8.2695V14.5661C9.34082 14.8189 9.55401 15.0212 9.82042 15.0212H11.334C11.5351 15.5372 12.0586 15.9061 12.6713 15.9061C13.2737 15.9061 13.795 15.5372 14.0019 15.0212ZM10.3408 8.81433H15.9206V13.2003H10.3408V8.81433Z" fill="white"/>
</svg>
