<svg width="16" height="15" viewBox="0 0 16 15" fill="none" xmlns="http://www.w3.org/2000/svg">
<path d="M6.73676 14.6642H6.72967C6.68397 14.6633 6.63892 14.6531 6.59724 14.6343C6.55556 14.6155 6.51811 14.5885 6.48714 14.5549L0.0895528 7.59836C0.0363467 7.54052 0.00487712 7.466 0.000521568 7.38753C-0.00383399 7.30906 0.0191948 7.23151 0.0656729 7.16814C0.112167 7.10479 0.179198 7.05952 0.255337 7.04006C0.331475 7.0206 0.412007 7.02815 0.483199 7.06143L6.33864 9.80315C6.38789 9.82628 6.4461 9.81509 6.48379 9.77591L15.4156 0.44071C15.5365 0.314221 15.7343 0.300415 15.8716 0.409367C16.0089 0.51832 16.0406 0.713837 15.9447 0.860475L7.05989 14.4713C7.0472 14.4911 7.03228 14.509 7.01586 14.5258L6.97668 14.565C6.91292 14.6284 6.82669 14.6641 6.73676 14.6642Z" fill="black"/>
</svg>
