<svg width="73" height="60" viewBox="0 0 73 60" fill="none" xmlns="http://www.w3.org/2000/svg">
<rect width="73" height="60" rx="16" fill="#FFDD9A"/>
<path d="M36 14C27.1627 14 20 21.1634 20 30C20 38.8366 27.1627 46 36 46C44.8373 46 52 38.8359 52 30C52 21.1641 44.8366 14 36 14ZM36.9685 37.1272V38.9793C36.9685 39.2683 36.7436 39.4786 36.454 39.4786H35.2195C34.9298 39.4786 34.6965 39.2683 34.6965 38.9793V37.2901C33.5602 37.2386 32.4141 36.9963 31.5465 36.6663C31.3194 36.58 31.1319 36.4132 31.0199 36.1976C30.9079 35.9819 30.8793 35.7326 30.9394 35.4972L31.1406 34.7132C31.1752 34.5777 31.2382 34.4511 31.3254 34.3417C31.4126 34.2323 31.522 34.1427 31.6464 34.0787C31.7707 34.0148 31.9073 33.9779 32.0469 33.9706C32.1866 33.9633 32.3262 33.9857 32.4566 34.0364C33.2831 34.356 34.2593 34.5885 35.3016 34.5885C36.6287 34.5885 37.5374 34.0761 37.5374 33.1444C37.5374 32.2595 36.7924 31.7003 35.0684 31.1175C32.5764 30.2792 30.8698 29.115 30.8698 26.8556C30.8698 24.8064 32.3201 23.1994 34.7996 22.7099V21.0207C34.7996 20.7317 35.0468 20.4727 35.3364 20.4727H36.571C36.8606 20.4727 37.073 20.7317 37.073 21.0207V22.5462C38.1571 22.5929 38.9397 22.7537 39.5942 22.9668C40.0893 23.1283 40.3817 23.6471 40.2515 24.1526L40.0747 24.8544C40.041 24.9867 39.9803 25.1106 39.8963 25.2183C39.8123 25.3259 39.7069 25.4149 39.5868 25.4798C39.4667 25.5446 39.3344 25.5839 39.1983 25.595C39.0623 25.6061 38.9254 25.5889 38.7963 25.5445C38.0392 25.2835 37.2436 25.1519 36.4428 25.1552C34.9291 25.1552 34.4396 25.8077 34.4396 26.4601C34.4396 27.2288 35.255 27.7176 37.2345 28.4633C40.0057 29.4416 41.1191 30.7227 41.1191 32.8179C41.1184 34.8907 39.6541 36.6621 36.9685 37.1272Z" fill="#FBB225"/>
</svg>
