<svg width="31" height="31" viewBox="0 0 31 31" fill="none" xmlns="http://www.w3.org/2000/svg">
<path fill-rule="evenodd" clip-rule="evenodd" d="M25.1901 10.3055C25.1988 10.5284 25.2017 10.7511 25.2017 10.9739C25.2017 17.7292 20.4496 25.5278 11.7599 25.5278C9.09051 25.5278 6.6084 24.677 4.51709 23.2287C4.88677 23.2692 5.26221 23.2997 5.64341 23.2997C7.85666 23.2997 9.89516 22.4791 11.5121 21.1018C9.44483 21.0714 7.6992 19.5826 7.09715 17.557C7.38617 17.6178 7.68381 17.6482 7.98819 17.6482C8.4174 17.6482 8.83413 17.5875 9.23357 17.466C7.07024 17.0001 5.44081 14.9341 5.44081 12.4528C5.44081 12.4224 5.44081 12.4122 5.44081 12.3919C6.07838 12.7667 6.80811 12.9995 7.58299 13.0299C6.31361 12.1082 5.47919 10.5385 5.47919 8.76609C5.47919 7.83432 5.71156 6.95316 6.1206 6.19357C8.45004 9.2927 11.9327 11.3284 15.859 11.5411C15.7783 11.1664 15.737 10.7715 15.737 10.3765C15.737 7.55083 17.8523 5.26189 20.4621 5.26189C21.8208 5.26189 23.0479 5.87978 23.9092 6.87231C24.9875 6.64949 25.9977 6.22415 26.9118 5.63674C26.5575 6.83182 25.8095 7.83428 24.832 8.4622C25.7883 8.34067 26.7005 8.06742 27.5465 7.66231C26.9118 8.68522 26.1129 9.58646 25.1901 10.3055Z" fill="#1EA1F2"/>
</svg>
