<svg width="245" height="150" viewBox="0 0 245 150" fill="none" xmlns="http://www.w3.org/2000/svg">
<mask id="mask0_4049_10404" style="mask-type:alpha" maskUnits="userSpaceOnUse" x="0" y="0" width="245" height="150">
<rect width="245" height="150" fill="#D9D9D9"/>
</mask>
<g mask="url(#mask0_4049_10404)">
<path fill-rule="evenodd" clip-rule="evenodd" d="M62.1899 -14.4612L64.967 -14.8184L104.818 -19.9444L121.271 -56.601L122.418 -59.1555L125.195 -59.5127L165.046 -64.6387L181.5 -101.295L182.646 -103.85L185.423 -104.207L225.275 -109.333L241.728 -145.99L250.851 -141.895L233.251 -102.684L232.105 -100.129L229.327 -99.772L189.476 -94.6459L173.023 -57.9894L171.876 -55.4349L169.099 -55.0777L129.248 -49.9516L112.795 -13.2951L111.648 -10.7406L108.871 -10.3834L69.0199 -5.25732L52.5669 31.3992L51.4203 33.9537L48.6432 34.3109L6.01475 39.7942L4.73896 29.8759L44.5903 24.7498L61.0434 -11.9067L62.1899 -14.4612ZM98.5413 34.5243L101.318 34.1671L141.17 29.0411L157.623 -7.61547L158.769 -10.17L161.546 -10.5272L201.398 -15.6532L217.851 -52.3098L218.997 -54.8642L221.775 -55.2215L261.626 -60.3475L278.079 -97.004L287.202 -92.9092L269.602 -53.6982L268.456 -51.1437L265.679 -50.7864L225.827 -45.6604L209.374 -9.00387L208.228 -6.44939L205.451 -6.09216L165.599 -0.966107L149.146 35.6904L148 38.2449L145.223 38.6021L105.371 43.7282L88.9182 80.3847L87.7717 82.9392L84.9945 83.2964L42.3661 88.7797L41.0903 78.8614L80.9416 73.7353L97.3947 37.0788L98.5413 34.5243ZM137.67 83.1526L134.893 83.5098L133.746 86.0643L117.293 122.721L77.4417 127.847L78.7175 137.765L121.346 132.282L124.123 131.925L125.27 129.37L141.723 92.7137L181.574 87.5876L184.351 87.2304L185.498 84.6759L201.951 48.0194L241.802 42.8933L244.579 42.5361L245.726 39.9816L262.179 3.32511L302.03 -1.80094L304.807 -2.15817L305.954 -4.71265L323.553 -43.9237L314.43 -48.0185L297.977 -11.362L258.126 -6.23596L255.349 -5.87873L254.202 -3.32425L237.749 33.3323L197.898 38.4583L195.121 38.8155L193.974 41.37L177.521 78.0266L137.67 83.1526Z" fill="white"/>
</g>
</svg>
