<svg width="149" height="238" viewBox="0 0 149 238" fill="none" xmlns="http://www.w3.org/2000/svg">
<mask id="mask0_4049_10406" style="mask-type:alpha" maskUnits="userSpaceOnUse" x="0" y="0" width="149" height="238">
<rect width="149" height="238" fill="#D9D9D9"/>
</mask>
<g mask="url(#mask0_4049_10406)">
<path fill-rule="evenodd" clip-rule="evenodd" d="M-125.808 135.906L-123.031 135.548L-83.1797 130.422L-66.7266 93.7657L-65.58 91.2112L-62.8029 90.854L-22.9516 85.728L-6.49854 49.0714L-5.35196 46.517L-2.57484 46.1597L37.2765 41.0337L53.7295 4.37716L62.8527 8.47203L45.2531 47.683L44.1065 50.2375L41.3294 50.5947L1.47806 55.7208L-14.975 92.3773L-16.1216 94.9318L-18.8987 95.289L-58.75 100.415L-75.2031 137.072L-76.3497 139.626L-79.1268 139.983L-118.978 145.109L-135.431 181.766L-136.578 184.32L-139.355 184.678L-181.983 190.161L-183.259 180.243L-143.408 175.117L-126.955 138.46L-125.808 135.906ZM-89.4568 184.891L-86.6797 184.534L-46.8283 179.408L-30.3753 142.751L-29.2287 140.197L-26.4516 139.84L13.3997 134.713L29.8528 98.0569L30.9994 95.5025L33.7765 95.1452L73.6278 90.0192L90.0809 53.3627L99.2041 57.4575L81.6044 96.6685L80.4579 99.223L77.6807 99.5803L37.8294 104.706L21.3763 141.363L20.2298 143.917L17.4526 144.275L-22.3987 149.401L-38.8517 186.057L-39.9983 188.612L-42.7754 188.969L-82.6267 194.095L-99.0798 230.751L-100.226 233.306L-103.004 233.663L-145.632 239.146L-146.908 229.228L-107.056 224.102L-90.6033 187.446L-89.4568 184.891ZM-50.3283 233.519L-53.1054 233.877L-54.252 236.431L-70.7051 273.088L-110.556 278.214L-109.281 288.132L-66.6522 282.649L-63.875 282.291L-62.7285 279.737L-46.2754 243.08L-6.42408 237.954L-3.64696 237.597L-2.50039 235.043L13.9527 198.386L53.804 193.26L56.5811 192.903L57.7277 190.348L74.1808 153.692L114.032 148.566L116.809 148.209L117.956 145.654L135.555 106.443L126.432 102.348L109.979 139.005L70.1279 144.131L67.3507 144.488L66.2042 147.042L49.7511 183.699L9.89978 188.825L7.12266 189.182L5.97609 191.737L-10.477 228.393L-50.3283 233.519Z" fill="white"/>
</g>
</svg>
