<svg width="24" height="25" viewBox="0 0 24 25" fill="none" xmlns="http://www.w3.org/2000/svg">
<path d="M21.4286 2.00115H18V1.14401C18 0.91668 17.9097 0.698662 17.7489 0.537917C17.5882 0.377171 17.3702 0.286865 17.1429 0.286865C16.9155 0.286865 16.6975 0.377171 16.5368 0.537917C16.376 0.698662 16.2857 0.91668 16.2857 1.14401V2.00115H7.71429V1.14401C7.71429 0.91668 7.62398 0.698662 7.46323 0.537917C7.30249 0.377171 7.08447 0.286865 6.85714 0.286865C6.62981 0.286865 6.4118 0.377171 6.25105 0.537917C6.09031 0.698662 6 0.91668 6 1.14401V2.00115H2.57143C1.88944 2.00115 1.23539 2.27207 0.753154 2.75431C0.270918 3.23654 0 3.89059 0 4.57258V21.7154C0 22.3974 0.270918 23.0515 0.753154 23.5337C1.23539 24.0159 1.88944 24.2869 2.57143 24.2869H21.4286C22.1106 24.2869 22.7646 24.0159 23.2468 23.5337C23.7291 23.0515 24 22.3974 24 21.7154V4.57258C24 3.89059 23.7291 3.23654 23.2468 2.75431C22.7646 2.27207 22.1106 2.00115 21.4286 2.00115ZM2.57143 3.71544H21.4286C21.6559 3.71544 21.8739 3.80574 22.0347 3.96649C22.1954 4.12723 22.2857 4.34525 22.2857 4.57258V7.14401H1.71429V4.57258C1.71429 4.34525 1.80459 4.12723 1.96534 3.96649C2.12608 3.80574 2.3441 3.71544 2.57143 3.71544ZM21.4286 22.5726H2.57143C2.3441 22.5726 2.12608 22.4823 1.96534 22.3215C1.80459 22.1608 1.71429 21.9428 1.71429 21.7154V8.85829H22.2857V21.7154C22.2857 21.9428 22.1954 22.1608 22.0347 22.3215C21.8739 22.4823 21.6559 22.5726 21.4286 22.5726Z" fill="white"/>
</svg>
