<svg width="24" height="25" viewBox="0 0 24 25" fill="none" xmlns="http://www.w3.org/2000/svg">
<path d="M5.14286 10.4119C5.14286 10.1876 5.23316 9.97256 5.39391 9.81399C5.55465 9.65542 5.77267 9.56633 6 9.56633H11.1429C11.3702 9.56633 11.5882 9.65542 11.7489 9.81399C11.9097 9.97256 12 10.1876 12 10.4119C12 10.6361 11.9097 10.8512 11.7489 11.0098C11.5882 11.1683 11.3702 11.2574 11.1429 11.2574H6C5.77267 11.2574 5.55465 11.1683 5.39391 11.0098C5.23316 10.8512 5.14286 10.6361 5.14286 10.4119ZM11.1429 12.9485H6C5.77267 12.9485 5.55465 13.0376 5.39391 13.1962C5.23316 13.3547 5.14286 13.5698 5.14286 13.7941C5.14286 14.0183 5.23316 14.2334 5.39391 14.3919C5.55465 14.5505 5.77267 14.6396 6 14.6396H11.1429C11.3702 14.6396 11.5882 14.5505 11.7489 14.3919C11.9097 14.2334 12 14.0183 12 13.7941C12 13.5698 11.9097 13.3547 11.7489 13.1962C11.5882 13.0376 11.3702 12.9485 11.1429 12.9485ZM11.1429 16.3307H6C5.77267 16.3307 5.55465 16.4198 5.39391 16.5783C5.23316 16.7369 5.14286 16.952 5.14286 17.1762C5.14286 17.4005 5.23316 17.6156 5.39391 17.7741C5.55465 17.9327 5.77267 18.0218 6 18.0218H11.1429C11.3702 18.0218 11.5882 17.9327 11.7489 17.7741C11.9097 17.6156 12 17.4005 12 17.1762C12 16.952 11.9097 16.7369 11.7489 16.5783C11.5882 16.4198 11.3702 16.3307 11.1429 16.3307ZM11.1429 19.7129H6C5.77267 19.7129 5.55465 19.802 5.39391 19.9605C5.23316 20.1191 5.14286 20.3342 5.14286 20.5584C5.14286 20.7827 5.23316 20.9977 5.39391 21.1563C5.55465 21.3149 5.77267 21.404 6 21.404H11.1429C11.3702 21.404 11.5882 21.3149 11.7489 21.1563C11.9097 20.9977 12 20.7827 12 20.5584C12 20.3342 11.9097 20.1191 11.7489 19.9605C11.5882 19.802 11.3702 19.7129 11.1429 19.7129ZM24 23.9406C24 24.1648 23.9097 24.3799 23.7489 24.5385C23.5882 24.6971 23.3702 24.7861 23.1429 24.7861H0.857143C0.629814 24.7861 0.411797 24.6971 0.251051 24.5385C0.0903058 24.3799 0 24.1648 0 23.9406C0 23.7163 0.0903058 23.5013 0.251051 23.3427C0.411797 23.1841 0.629814 23.095 0.857143 23.095H1.71429V7.55225C1.71323 7.23802 1.80139 6.92977 1.96878 6.66242C2.13618 6.39508 2.37612 6.17931 2.66143 6.03957L12.9471 0.966301C13.4837 0.702491 14.106 0.729549 14.6151 1.03986C15.1243 1.35018 15.4277 1.88794 15.4277 2.47898V8.72079H20.5706C21.516 8.72079 22.2849 9.47924 22.2849 10.4119V23.095H23.142C23.3693 23.095 23.5873 23.1841 23.7481 23.3427C23.9088 23.5013 24 23.7163 24 23.9406ZM15.4286 10.4119V23.095H20.5714V10.4119H15.4286ZM3.42857 23.095H13.7143V2.47898L3.42857 7.55225V23.095Z" fill="white"/>
</svg>
