<svg width="24" height="25" viewBox="0 0 24 25" fill="none" xmlns="http://www.w3.org/2000/svg">
<path d="M21.8837 24.7864H14.9734C14.4124 24.7857 13.8745 24.5625 13.4777 24.1658C13.081 23.769 12.8578 23.2312 12.8571 22.6701V14.0455C12.8578 13.4845 13.081 12.9466 13.4777 12.5498C13.8745 12.1531 14.4124 11.9299 14.9734 11.9292H21.8837C22.4448 11.9299 22.9827 12.1531 23.3794 12.5498C23.7761 12.9466 23.9993 13.4845 24 14.0455V22.6701C23.9993 23.2312 23.7761 23.769 23.3794 24.1658C22.9827 24.5625 22.4448 24.7857 21.8837 24.7864ZM14.9734 13.6435C14.9206 13.6435 14.8684 13.6539 14.8196 13.6741C14.7708 13.6943 14.7265 13.7239 14.6892 13.7613C14.6518 13.7986 14.6222 13.8429 14.602 13.8917C14.5818 13.9405 14.5714 13.9927 14.5714 14.0455V22.6701C14.5714 22.8921 14.7514 23.0721 14.9734 23.0721H21.8837C22.1057 23.0721 22.2857 22.8921 22.2857 22.6701V14.0455C22.2857 13.9389 22.2434 13.8367 22.168 13.7613C22.0926 13.6859 21.9903 13.6435 21.8837 13.6435H14.9734ZM21.8837 10.2149H14.9734C14.4124 10.2143 13.8745 9.99108 13.4777 9.59435C13.081 9.19762 12.8578 8.65973 12.8571 8.09866V2.90266C12.8578 2.3416 13.081 1.80371 13.4777 1.40697C13.8745 1.01024 14.4124 0.787057 14.9734 0.786377H21.8837C22.4448 0.787057 22.9827 1.01024 23.3794 1.40697C23.7761 1.80371 23.9993 2.3416 24 2.90266V8.09866C23.9993 8.65973 23.7761 9.19762 23.3794 9.59435C22.9827 9.99108 22.4448 10.2143 21.8837 10.2149ZM14.9734 2.50066C14.9206 2.50066 14.8684 2.51106 14.8196 2.53126C14.7708 2.55147 14.7265 2.58108 14.6892 2.61841C14.6518 2.65573 14.6222 2.70005 14.602 2.74882C14.5818 2.7976 14.5714 2.84987 14.5714 2.90266V8.09866C14.5714 8.32066 14.7514 8.50066 14.9734 8.50066H21.8837C22.1057 8.50066 22.2857 8.32066 22.2857 8.09866V2.90266C22.2857 2.79605 22.2434 2.6938 22.168 2.61841C22.0926 2.54302 21.9903 2.50066 21.8837 2.50066H14.9734ZM9.02657 13.6435H2.11629C1.55522 13.6428 1.01733 13.4197 0.620597 13.0229C0.223864 12.6262 0.000680492 12.0883 0 11.5272V2.90266C0.000680492 2.3416 0.223864 1.80371 0.620597 1.40697C1.01733 1.01024 1.55522 0.787057 2.11629 0.786377H9.02657C9.58764 0.787057 10.1255 1.01024 10.5223 1.40697C10.919 1.80371 11.1422 2.3416 11.1429 2.90266V11.5272C11.1422 12.0883 10.919 12.6262 10.5223 13.0229C10.1255 13.4197 9.58764 13.6428 9.02657 13.6435ZM2.11629 2.50066C2.00967 2.50066 1.90742 2.54302 1.83203 2.61841C1.75664 2.6938 1.71429 2.79605 1.71429 2.90266V11.5272C1.71429 11.7492 1.89429 11.9292 2.11629 11.9292H9.02657C9.24857 11.9292 9.42857 11.7492 9.42857 11.5272V2.90266C9.42857 2.79605 9.38622 2.6938 9.31083 2.61841C9.23544 2.54302 9.13319 2.50066 9.02657 2.50066H2.11629ZM9.02657 24.7864H2.11629C1.55522 24.7857 1.01733 24.5625 0.620597 24.1658C0.223864 23.769 0.000680492 23.2312 0 22.6701V17.4741C0.000680492 16.913 0.223864 16.3751 0.620597 15.9784C1.01733 15.5817 1.55522 15.3585 2.11629 15.3578H9.02657C9.58764 15.3585 10.1255 15.5817 10.5223 15.9784C10.919 16.3751 11.1422 16.913 11.1429 17.4741V22.6701C11.1422 23.2312 10.919 23.769 10.5223 24.1658C10.1255 24.5625 9.58764 24.7857 9.02657 24.7864ZM2.11629 17.0721C2.00967 17.0721 1.90742 17.1144 1.83203 17.1898C1.75664 17.2652 1.71429 17.3675 1.71429 17.4741V22.6701C1.71429 22.8921 1.89429 23.0721 2.11629 23.0721H9.02657C9.24857 23.0721 9.42857 22.8921 9.42857 22.6701V17.4741C9.42857 17.3675 9.38622 17.2652 9.31083 17.1898C9.23544 17.1144 9.13319 17.0721 9.02657 17.0721H2.11629Z" fill="white"/>
</svg>
