<svg width="24" height="25" viewBox="0 0 24 25" fill="none" xmlns="http://www.w3.org/2000/svg">
<g clip-path="url(#clip0_547_1418)">
<path d="M11.6324 16.8746C10.9462 16.8746 10.3906 17.4464 10.3906 18.1327C10.3906 18.8026 10.9298 19.3908 11.6324 19.3908C12.335 19.3908 12.8905 18.8026 12.8905 18.1327C12.8905 17.4464 12.3187 16.8746 11.6324 16.8746ZM11.8448 7.34873C9.63905 7.34873 8.62603 8.65584 8.62603 9.53816C8.62603 10.1754 9.16519 10.4695 9.60638 10.4695C10.4887 10.4695 10.1292 9.2114 11.7958 9.2114C12.6128 9.2114 13.2664 9.57088 13.2664 10.3225C13.2664 11.2049 12.3514 11.7113 11.8122 12.1688C11.3384 12.5773 10.7175 13.2472 10.7175 14.6524C10.7175 15.502 10.9462 15.7471 11.6161 15.7471C12.4167 15.7471 12.5801 15.3877 12.5801 15.0772C12.5801 14.2276 12.5965 13.7374 13.4951 13.0349C13.9363 12.6917 15.3251 11.5806 15.3251 10.0447C15.3251 8.50884 13.9363 7.34873 11.8448 7.34873Z" fill="white"/>
<path d="M12 0.786133C5.36794 0.786133 0 6.15318 0 12.7861V23.8486C0 24.3664 0.419719 24.7861 0.9375 24.7861H12C18.632 24.7861 24 19.4191 24 12.7861C24 6.15407 18.633 0.786133 12 0.786133ZM12 22.9111H1.875V12.7861C1.875 7.19034 6.40345 2.66113 12 2.66113C17.5958 2.66113 22.125 7.18959 22.125 12.7861C22.125 18.3819 17.5965 22.9111 12 22.9111Z" fill="white"/>
</g>
<defs>
<clipPath id="clip0_547_1418">
<rect width="24" height="24" fill="white" transform="translate(0 0.786133)"/>
</clipPath>
</defs>
</svg>
