<svg width="24" height="25" viewBox="0 0 24 25" fill="none" xmlns="http://www.w3.org/2000/svg">
<path d="M11.9602 22.7531H2.99002C2.43984 22.7531 1.99336 22.3066 1.99336 21.7565V3.81623C1.99336 3.26606 2.43989 2.81958 2.99002 2.81958H11.9602C12.5113 2.81958 12.9568 2.37408 12.9568 1.82292C12.9568 1.27177 12.5113 0.826172 11.9602 0.826172H2.99002C1.34152 0.826172 0 2.16773 0 3.81623V21.7564C0 23.4049 1.34152 24.7464 2.99002 24.7464H11.9602C12.5113 24.7464 12.9568 24.3009 12.9568 23.7498C12.9568 23.1986 12.5113 22.7531 11.9602 22.7531Z" fill="white"/>
<path d="M23.703 12.0766L17.6431 6.09657C17.2524 5.70985 16.6206 5.71487 16.2338 6.10655C15.8471 6.49824 15.8511 7.12913 16.2438 7.51585L20.5744 11.7896H8.97005C8.41889 11.7896 7.97339 12.2351 7.97339 12.7862C7.97339 13.3374 8.41889 13.7829 8.97005 13.7829H20.5744L16.2438 18.0567C15.8512 18.4434 15.8482 19.0743 16.2338 19.466C16.4292 19.6633 16.6863 19.763 16.9435 19.763C17.1967 19.763 17.4498 19.6673 17.6431 19.4759L23.703 13.4958C23.8923 13.3085 24 13.0533 24 12.7862C24 12.5192 23.8933 12.265 23.703 12.0766Z" fill="white"/>
</svg>
