<svg width="24" height="25" viewBox="0 0 24 25" fill="none" xmlns="http://www.w3.org/2000/svg">
<path d="M1.496 22.8821C1.09988 22.88 0.72059 22.7217 0.44049 22.4416C0.16039 22.1615 0.00210145 21.7822 0 21.3861V9.08213C0.00211188 8.26167 0.328975 7.47542 0.90913 6.89526C1.48929 6.31511 2.27554 5.98824 3.096 5.98613H17.696C18.5178 5.98613 19.3062 6.31206 19.888 6.89244C20.4699 7.47283 20.7979 8.26029 20.8 9.08213V17.2821C20.8 18.104 20.4741 18.8923 19.8937 19.4742C19.3133 20.056 18.5258 20.384 17.704 20.3861H5.528C5.38971 20.3873 5.25531 20.4321 5.144 20.5141L2.4 22.5861C2.13836 22.7795 1.82133 22.8833 1.496 22.8821ZM3.096 7.58613C2.69988 7.58823 2.32059 7.74652 2.04049 8.02662C1.76039 8.30672 1.6021 8.68602 1.6 9.08213V21.1861L4.184 19.2341C4.5728 18.9454 5.0437 18.7884 5.528 18.7861H17.696C18.0949 18.7861 18.4774 18.6277 18.7595 18.3456C19.0415 18.0636 19.2 17.681 19.2 17.2821V9.08213C19.1979 8.68602 19.0396 8.30672 18.7595 8.02662C18.4794 7.74652 18.1001 7.58823 17.704 7.58613H3.096Z" fill="white"/>
<path d="M13.552 14.0581C13.9938 14.0581 14.352 13.7 14.352 13.2581C14.352 12.8163 13.9938 12.4581 13.552 12.4581C13.1102 12.4581 12.752 12.8163 12.752 13.2581C12.752 13.7 13.1102 14.0581 13.552 14.0581Z" fill="white"/>
<path d="M10.448 14.0581C10.8898 14.0581 11.248 13.7 11.248 13.2581C11.248 12.8163 10.8898 12.4581 10.448 12.4581C10.0062 12.4581 9.648 12.8163 9.648 13.2581C9.648 13.7 10.0062 14.0581 10.448 14.0581Z" fill="white"/>
<path d="M7.248 14.0581C7.68983 14.0581 8.048 13.7 8.048 13.2581C8.048 12.8163 7.68983 12.4581 7.248 12.4581C6.80617 12.4581 6.448 12.8163 6.448 13.2581C6.448 13.7 6.80617 14.0581 7.248 14.0581Z" fill="white"/>
<path d="M23.2 14.7861C22.9878 14.7861 22.7843 14.7018 22.6343 14.5518C22.4843 14.4018 22.4 14.1983 22.4 13.9861V5.88213C22.3979 5.48602 22.2396 5.10672 21.9595 4.82662C21.6794 4.54652 21.3001 4.38823 20.904 4.38613H4.8C4.58783 4.38613 4.38434 4.30185 4.23431 4.15182C4.08429 4.00179 4 3.79831 4 3.58613C4 3.37396 4.08429 3.17048 4.23431 3.02045C4.38434 2.87042 4.58783 2.78613 4.8 2.78613H20.904C21.7245 2.78824 22.5107 3.11511 23.0909 3.69526C23.671 4.27542 23.9979 5.06167 24 5.88213V13.9861C24 14.1983 23.9157 14.4018 23.7657 14.5518C23.6157 14.7018 23.4122 14.7861 23.2 14.7861Z" fill="white"/>
</svg>
