<svg width="24" height="25" viewBox="0 0 24 25" fill="none" xmlns="http://www.w3.org/2000/svg">
<path d="M18.75 0.786377H5.25C2.3505 0.786377 0 3.13688 0 6.03638V19.5364C0 22.4359 2.3505 24.7864 5.25 24.7864H18.75C21.6495 24.7864 24 22.4359 24 19.5364V6.03638C24 3.13688 21.6495 0.786377 18.75 0.786377ZM22.5 19.5364C22.5 21.6075 20.8211 23.2864 18.75 23.2864H5.25C3.17892 23.2864 1.5 21.6075 1.5 19.5364V6.03638C1.5 3.9653 3.17892 2.28638 5.25 2.28638H18.75C20.8211 2.28638 22.5 3.9653 22.5 6.03638V19.5364Z" fill="white"/>
<path d="M7.5 6.03638H6C5.58577 6.03638 5.25 6.37214 5.25 6.78638V8.28638C5.25 8.70061 5.58577 9.03638 6 9.03638H7.5C7.91423 9.03638 8.25 8.70061 8.25 8.28638V6.78638C8.25 6.37214 7.91423 6.03638 7.5 6.03638ZM7.5 11.2864H6C5.58577 11.2864 5.25 11.6221 5.25 12.0364V13.5364C5.25 13.9506 5.58577 14.2864 6 14.2864H7.5C7.91423 14.2864 8.25 13.9506 8.25 13.5364V12.0364C8.25 11.6221 7.91423 11.2864 7.5 11.2864ZM7.5 16.5364H6C5.58577 16.5364 5.25 16.8721 5.25 17.2864V18.7864C5.25 19.2006 5.58577 19.5364 6 19.5364H7.5C7.91423 19.5364 8.25 19.2006 8.25 18.7864V17.2864C8.25 16.8721 7.91423 16.5364 7.5 16.5364ZM9.75 6.78638H18.75V8.28638H9.75V6.78638ZM9.75 12.0364H18.75V13.5364H9.75V12.0364ZM9.75 17.2864H18.75V18.7864H9.75V17.2864Z" fill="white"/>
</svg>
