<svg width="24" height="25" viewBox="0 0 24 25" fill="none" xmlns="http://www.w3.org/2000/svg">
<path fill-rule="evenodd" clip-rule="evenodd" d="M12 2.19238C6.14923 2.19238 1.40625 6.93537 1.40625 12.7861C1.40625 14.9024 2.02677 16.8737 3.09578 18.528C4.43072 16.3928 6.5126 14.7716 8.97625 14.0315C7.6459 13.085 6.77813 11.5306 6.77813 9.77362C6.77813 6.88966 9.11604 4.55174 12 4.55174C14.884 4.55174 17.2219 6.88966 17.2219 9.77362C17.2219 11.5306 16.3541 13.085 15.0238 14.0315C17.4874 14.7716 19.5693 16.3928 20.9042 18.528C21.9732 16.8737 22.5938 14.9024 22.5938 12.7861C22.5938 6.93537 17.8508 2.19238 12 2.19238ZM12.3097 24.7822C18.794 24.6179 24 19.31 24 12.7861C24 6.15872 18.6274 0.786133 12 0.786133C5.37258 0.786133 0 6.15872 0 12.7861C0 19.2983 5.18738 24.5989 11.6555 24.7813C11.7699 24.7845 11.8848 24.7861 12 24.7861C12.1036 24.7861 12.2068 24.7848 12.3097 24.7822ZM19.9864 19.7434C18.4451 16.9134 15.4461 14.9955 12 14.9955C8.55395 14.9955 5.55492 16.9134 4.01361 19.7434C5.90179 21.9085 8.65219 23.2984 11.7266 23.3764C11.8174 23.3787 11.9086 23.3799 12 23.3799C12.1228 23.3799 12.2452 23.3778 12.367 23.3736C15.4033 23.2701 18.1174 21.8865 19.9864 19.7434ZM12 5.95799C9.89269 5.95799 8.18438 7.66631 8.18438 9.77362C8.18438 11.8809 9.89269 13.5892 12 13.5892C14.1073 13.5892 15.8156 11.8809 15.8156 9.77362C15.8156 7.66631 14.1073 5.95799 12 5.95799Z" fill="white"/>
</svg>
