<svg width="24" height="25" viewBox="0 0 24 25" fill="none" xmlns="http://www.w3.org/2000/svg">
<path d="M15.2454 11.0752C15.2454 10.883 15.1691 10.6986 15.0331 10.5627C14.8972 10.4267 14.7128 10.3504 14.5206 10.3504H6.54756C6.35533 10.3504 6.17097 10.4267 6.03504 10.5627C5.89911 10.6986 5.82274 10.883 5.82274 11.0752C5.82274 11.2674 5.89911 11.4518 6.03504 11.5877C6.17097 11.7236 6.35533 11.8 6.54756 11.8H14.5206C14.6158 11.8 14.71 11.7813 14.798 11.7448C14.8859 11.7084 14.9658 11.655 15.0331 11.5877C15.1004 11.5204 15.1538 11.4405 15.1903 11.3526C15.2267 11.2646 15.2454 11.1704 15.2454 11.0752ZM6.54595 14.0107C6.35372 14.0107 6.16936 14.0871 6.03343 14.223C5.8975 14.3589 5.82113 14.5433 5.82113 14.7355C5.82113 14.9278 5.8975 15.1121 6.03343 15.2481C6.16936 15.384 6.35372 15.4604 6.54595 15.4604H10.7733C10.9655 15.4604 11.1499 15.384 11.2858 15.2481C11.4217 15.1121 11.4981 14.9278 11.4981 14.7355C11.4981 14.5433 11.4217 14.3589 11.2858 14.223C11.1499 14.0871 10.9655 14.0107 10.7733 14.0107H6.54595Z" fill="white"/>
<path d="M20.0212 11.1155C19.829 11.1155 19.6446 11.1918 19.5087 11.3278C19.3728 11.4637 19.2964 11.648 19.2964 11.8403V17.7025C19.2957 18.2299 19.086 18.7355 18.713 19.1084C18.3401 19.4813 17.8345 19.6911 17.3072 19.6917H12.4589C12.3017 19.6915 12.1487 19.7427 12.0232 19.8375L7.83694 22.9856C7.80119 23.0143 7.7576 23.0315 7.71188 23.035C7.66617 23.0384 7.62049 23.028 7.58084 23.005C7.53986 22.9854 7.50555 22.9542 7.4822 22.9152C7.45885 22.8763 7.4475 22.8313 7.44956 22.7859L7.5301 20.4423C7.53323 20.3452 7.51683 20.2484 7.48187 20.1577C7.44692 20.067 7.39412 19.9843 7.32661 19.9143C7.2591 19.8444 7.17824 19.7888 7.08883 19.7507C6.99942 19.7126 6.90327 19.6928 6.80608 19.6925H3.43888C2.91143 19.6921 2.40571 19.4824 2.03275 19.1094C1.65979 18.7365 1.45007 18.2307 1.44965 17.7033V8.11952C1.44922 7.59115 1.65843 7.08418 2.03137 6.70989C2.40431 6.33559 2.91051 6.12453 3.43888 6.12304H12.3703C12.5625 6.12304 12.7469 6.04668 12.8828 5.91075C13.0188 5.77482 13.0951 5.59045 13.0951 5.39822C13.0951 5.20598 13.0188 5.02162 12.8828 4.88569C12.7469 4.74976 12.5625 4.6734 12.3703 4.6734H3.43888C2.52609 4.67553 1.65142 5.03963 1.00673 5.68582C0.36205 6.33202 -2.49145e-06 7.20754 0 8.12033V17.7033C0.00106528 18.6151 0.363691 19.4892 1.00835 20.1341C1.65301 20.7789 2.52709 21.1417 3.43888 21.143H6.05549L6.00072 22.7392C5.98962 23.058 6.06944 23.3733 6.23088 23.6484C6.39231 23.9235 6.62868 24.147 6.91239 24.2927C7.15393 24.4193 7.4225 24.4856 7.6952 24.486C8.05197 24.486 8.40553 24.3709 8.70673 24.1462L12.7005 21.143H17.3063C18.2181 21.1417 19.0922 20.7789 19.7369 20.1341C20.3815 19.4892 20.7442 18.6151 20.7452 17.7033V11.8411C20.7454 11.7459 20.7269 11.6515 20.6906 11.5635C20.6543 11.4755 20.601 11.3955 20.5337 11.3281C20.4665 11.2607 20.3866 11.2072 20.2987 11.1707C20.2107 11.1342 20.1164 11.1155 20.0212 11.1155Z" fill="white"/>
<path d="M23.9393 4.21112C23.876 4.01425 23.7634 3.83686 23.6121 3.69587C23.4608 3.55489 23.276 3.45501 23.0751 3.40576L21.2228 2.94429L20.2113 1.32552C19.7627 0.605531 18.5917 0.607142 18.1439 1.32552L17.1324 2.94429L15.2801 3.40576C14.8701 3.50724 14.5464 3.80844 14.4159 4.21112C14.2854 4.6138 14.3692 5.04789 14.6414 5.37245L15.8688 6.83337L15.7351 8.73723C15.7199 8.94355 15.7578 9.15032 15.8453 9.33783C15.9327 9.52533 16.0666 9.68732 16.2344 9.80836C16.4015 9.93042 16.597 10.0077 16.8024 10.033C17.0077 10.0582 17.2162 10.0305 17.4078 9.95252L19.178 9.23736L20.9474 9.95252C21.3396 10.112 21.7777 10.0572 22.1208 9.80917C22.4631 9.56031 22.6499 9.16005 22.6209 8.73723L22.4872 6.83337L23.7146 5.37164C23.986 5.04789 24.0706 4.6138 23.9393 4.21112ZM21.1882 6.12546C21.0671 6.26972 21.007 6.45547 21.0207 6.6433L21.1495 8.47147L19.4502 7.7845C19.2762 7.71376 19.0814 7.71376 18.9074 7.7845L17.2089 8.47147L17.337 6.6433C17.3497 6.45558 17.2897 6.27017 17.1694 6.12546L15.9912 4.72252L17.7694 4.27877C17.9515 4.23329 18.1088 4.11897 18.2083 3.95985L19.1796 2.40631L20.1509 3.95985C20.2507 4.11931 20.4078 4.23367 20.5898 4.27877L22.368 4.72252L21.1882 6.12546Z" fill="white"/>
</svg>
