<svg width="24" height="25" viewBox="0 0 24 25" fill="none" xmlns="http://www.w3.org/2000/svg">
<path d="M12 24.7861C18.6171 24.7861 24 19.4033 24 12.7861C24 6.16899 18.6171 0.786133 12 0.786133C5.38286 0.786133 0 6.16899 0 12.7861C0 19.4033 5.38286 24.7861 12 24.7861ZM12 2.50042C17.6743 2.50042 22.2857 7.11185 22.2857 12.7861C22.2857 18.4604 17.6743 23.0718 12 23.0718C6.32571 23.0718 1.71429 18.4604 1.71429 12.7861C1.71429 7.11185 6.32571 2.50042 12 2.50042Z" fill="white"/>
<path d="M6.85727 11.929H17.143C17.3703 11.929 17.5883 11.8387 17.7491 11.6779C17.9098 11.5172 18.0001 11.2991 18.0001 11.0718C18.0001 10.8445 17.9098 10.6265 17.7491 10.4657C17.5883 10.305 17.3703 10.2147 17.143 10.2147H8.45927L9.2847 8.9761C9.41087 8.78697 9.45673 8.55546 9.41221 8.3325C9.36768 8.10955 9.23641 7.91341 9.04727 7.78725C8.85813 7.66108 8.62662 7.61521 8.40367 7.65974C8.18072 7.70427 7.98458 7.83554 7.85841 8.02467L6.14413 10.5961C6.058 10.7252 6.00854 10.8752 6.00101 11.0302C5.99348 11.1852 6.02817 11.3394 6.10138 11.4762C6.17459 11.613 6.28357 11.7274 6.41669 11.8071C6.54982 11.8869 6.70209 11.929 6.85727 11.929ZM6.85727 15.3575H15.5418L14.7156 16.5961C14.6531 16.6898 14.6097 16.7948 14.5878 16.9052C14.5659 17.0157 14.566 17.1293 14.5881 17.2397C14.6101 17.3501 14.6537 17.4551 14.7163 17.5486C14.7789 17.6422 14.8593 17.7225 14.953 17.785C15.1421 17.9111 15.3736 17.957 15.5966 17.9125C15.8195 17.8679 16.0157 17.7367 16.1418 17.5475L17.8561 14.9761C17.9419 14.847 17.9912 14.697 17.9985 14.5421C18.0059 14.3872 17.9712 14.2332 17.898 14.0965C17.8249 13.9597 17.716 13.8454 17.5831 13.7656C17.4501 13.6858 17.298 13.6435 17.143 13.6432H6.85727C6.62994 13.6432 6.41193 13.7336 6.25118 13.8943C6.09043 14.055 6.00013 14.2731 6.00013 14.5004C6.00013 14.7277 6.09043 14.9457 6.25118 15.1065C6.41193 15.2672 6.62994 15.3575 6.85727 15.3575Z" fill="white"/>
</svg>
